<?xml version="1.0" encoding="UTF-8"?>
<svg version="1.1" viewBox="0 0 913.5 927.32" xmlns="http://www.w3.org/2000/svg">
 <g transform="translate(30.647 -46.898)">
  <path d="m560.13 46.898 12.969 11.656s-30.133-10.183-45-10.625c-15.026-0.44698-35.199-1.527-21.812 4.7812-8.4111 1.6845-19.281 1.5-19.281 1.5l10.062 5.7188c-15.211-2.6798-16.797-5.3514-47-8.0312 8.2402 2.8451 18.681 4.7602 21.188 10.062 0 0-32.32-0.22824-40.344 3.7188-7.2986 3.5905-25.611-1.6174-37.5 9.2812 0 0 28.052-5.3176 38.75 0.03125-11.76 1.716-27.472 7.0094-40.844 21.719 4.4621-1.1433 9.7188-1.6562 9.7188-1.6562s-8.906 12.001-13.312 14.031c-9.2495 4.2612-20.776 14.363-26.125 18.375-5.3488 4.0116 16.031-2.6562 16.031-2.6562s-4.0029 10.695-17.375 18.719c-13.372 8.0233-18.719 16.031-18.719 16.031l16.062-5.3438-17.406 30.75-1.3438 10.719s-4.5217 16.151-6.6562 26.719c-2.0794 10.295-7.9688 12.594-7.9688 12.594l4.625 4.3438-2.875 8.8438 5.0312 3.3125-2 9.875 6.4375 1-0.59375 12.188c3.4338 0.64928 6.6836 3.1938 6.625 13.156 0 0 2.8419 9.9238 5.1562 19.406-12.745 0.89114-11.487 12.01-8.0625 20.938l-13.219 10.469 0.34375 2.6562 5.0625-0.4375c-0.73215 0.9653-2.3688 3.0604-2.6562 3.1562-0.35694 0.11898-0.34375 0-0.34375 0l-5.125-0.46875 0.34375-2.75-2.375-0.34375-2.0312 3.5625-0.21875 9.5312s8.3125 2.3618 8.3125 2.7188v0.375s0.1118 6.2993 0.46875 6.6562c0.35694 0.35694 0.375 0.46875 0.375 0.46875l1.375-0.125s-1.0347-14.601 0.75-17.219c1.7847-2.6176 2.2164-4.3919 5.75-5.9062 3.5336-1.5144 19.513-3.3701 45.594 0.5s53.45 8.0018 56.031 14.312c3.0288 7.4036 0.34375 14.125 0.34375 14.125s-4.0529 0.82694-5.0625 1.5c-1.0096 0.67305-2.1875 4.5409-2.1875 5.7188 0 1.1778 3.8894 3.2188 4.5625 3.2188 0.67306 0-1.3606-2.7092-0.6875-3.7188 0.67306-1.0096 1.8438-0.5 1.8438-0.5v-4.7188l1.6875 0.53125s-1.5 8.0722-1.5 9.25 3.6995 2.0096 3.5312 1c-0.16827-1.0096-0.84133-4.3751 0-6.5625 0.84132-2.1874 2.6875-4.875 2.6875-4.875s0.82285-4.2182 0.46875-8.0625c1.437-0.19614 3.4343-0.42419 5.9375-0.65625-0.56927 7.6494-3.656 12.624-5.8438 20.719 2.9355-7.9324 6.4654-13.907 7.5938-20.906 1.8984-0.15097 3.9254-0.2593 6-0.3125 8.1115-0.20799 11.465 2.0948 15.625 2.7188 2.3956 0.35935 4.2812 1.0298 5.5312 1.5625-0.33363 5.8372 1.1112 12.916 3.8125 19.219 0.41597-7.9035-5.1955-23.279 2.5-28.062 11.724-7.2877 68.135-4.5598 87.156-1.4688 16.639 2.7038 20.793 4.3746 21.625 10.406 1.1495 8.3336 0.625 19.344 0.625 19.344l0.59375-0.0625c-0.94531 6.0406-2.2311 15.15-3.9688 17.219-1.7549 2.0894-5.2586 7.2721-53.969 5.2188-44.008-1.8552-43.809-4.6178-51.781-16.156 6.4322 10.567 4.4739 15.256 54.094 17.094 49.62 1.8378 51.778-3.887 53.156-7.5625 1.0212-2.7231 2.4741-10.176 3.125-15.906l0.625-0.0625s0.34013-4.2682 0.34375-9.3125c1.963 0.0801 14.192 0.59375 16.5 0.59375 1.343 0 15.438-4.1361 28.406-8.0312-0.56757 14.135-0.91329 28.984-0.6875 34.531 0.27939 6.864 8.0625 8.7188 8.0625 8.7188 5.3109-28.915 18.835-40.262 15.594-50.75-1.3265-4.2917 26.722-18.095 33.75-14.719 8.3518 4.0116 20.885 20.43 18.625 39.062-2.1701 17.888-28.019 67.127-35.875 70.531-6.4594 2.7992-11.752 23.206-42.281 4.0312-5.4653 14.225-12.627 40.87-28.188 74.531-15.317 33.134-72.312 151.44-84.656 171.5-11.602 18.851-12.031 34.75-12.031 34.75 16.462-31.278 46.165-89.191 70.281-137.47l3.1875 13.75s-28.334 116.74-173.81 293.69c-110.26-130.03-100.5-361.12-100.5-361.12s34.175-8.3788 46.969-18.375c-9.0337 31.957-13.434 61.417-11.375 84.406 2.1548 24.062-0.59524-42.437 14.969-82.75 5.8028 12.704 11.844 24.625 11.844 24.625l1.125 3.9375 3.9062 1.0938 1.6875 10.094 3.375-2.25-0.5625 8.4062 6.7188 0.5625 1.6875 8.9688 5.0312 3.3438 1.6875 7.2812 3.9062-1.6875 1.125 7.8438 5.0312-2.25 2.8125 7.2812 6.1562-3.3438 2.2188 7.2812 5.625-3.375 2.2188 5.625 5.625-2.8125s-0.0185 5.5886 2.7812 4.4688c2.7997-1.1199 2.25-1.125 2.25-1.125l3.3438-2.7812 2.25 6.1562 5.5938-3.9062 2.8125 4.4688 6.1562-4.4688 2.7812 5.0312 4.5-4.5 3.3438 3.375 3.9375-5.0312 3.3438 5.0312 3.375-6.7188 4.4688 3.9062 3.9375-5.5938 3.9062 2.8125 2.8125-4.5 4.4688 1.125 3.3438-6.1562 3.9375 2.8125 1.6875-3.9375 5.5938 1.125 2.7812-6.7188 3.375 2.8125 2.25-3.375v-0.0313l-6.7188-7.25s-0.0153 12.342-3.375 5.0625c-3.3597-7.2793-1.6952-16.24-3.375-7.2812l-1.6562 8.9375-5.0625-2.2188-0.84375-1.5312 2.1875 1.8125-7.3438-16.438v10.344l3.2188 2.6562v10.438l-6.1562-6.1875v10.094l-5.5938-5.0312-3.375 9.5-2.2188-5.3125-2.9375-16.156-0.59375 12.188 2.0625 3.875-3.5938 5.4062-2.25-7.2812-4.4688 7.8438-1.0312-1.4375 6.8438-10.844-6.0938-4.875v0.0937l-4.2812-3.9375 3.0625-2.8438-3.6562-7.3125-4.2812 14.625 3.3125-3.0625 1.75 7.3125h-5.875l2.0312-1.8125-9.75-6.7188 3.6562 12.188 3.0625-2.75v8.8438l6.9688-9.3125 0.9375 3.8438 2.75-5.125-0.8125 11.156-1.375-1.9375-3.9375 6.1562-3.9062-4.4688-3.9375 5.0312-3.9062-3.9375-0.0313 0.0313 0.53125-15.438-7.3125 9.125 5.7812 6.8438-6.25 3.375-1.125-7.8438-0.84375 0.5v-11.906l5.5 4.7812-1.3125-5.8438 9.8438-6.3438-4.2812-10.375-5.7188 16.031-2.8125-12.375-4.875 10.969 2.625 2.2812-4.4375 4.4375 5.375 8.4062-4.6562 2.7812-0.5625-6.1562-10.094 5.625-0.75-2.0938 8.8438-7.9688-6.6875-1.8125-3.0938 7.1875-0.53125-1.5-5.2812-0.46875 5.25-13.156-6.0938 4.875v8.2188h-0.0313l-4.5-8.9688-5.5938 5.0312-0.53125-12.156 0.28125-0.0313-1.8438-7.3125-4.9375 4.3125 0.3125-6.0938-4.4688 4.5 1.5625-3.3125 8.1562-4.3125 0.59375-9.75-6.125 8.5312 0.84375-1.8125-7.2812-2.25h-0.8125l7.2812-3.8438-0.59375-9.1562-9.3438 13h-3.8125l-2.5-4.6562 5.2812-5.2812 1.2188-7.3125-7 11.656-1.4688-2.7812 2.2188-6.7188-4.6562-1.8125 1.6875-9.0625 1.3125 0.78125-0.5-9.4375 4.75-0.3125-1.8125-7.3125-7.9375 7.9375 2.375-0.15625-4.8125 4.4062 6.4688 3.9688-4.6875 5.875-1.6875-6.6562-2.8125 6.1562s-14.547-26.306-17.906-38.625c-3.3597-12.319-2.7889-54.857-4.4688-78.375-1.6798-23.518-3.2081-33.29-3.5625-38.906-0.0239-0.37877-1.6036-0.91553-2.75-0.90625-0.68784 6e-3 -1.2015 0.21542-1.1562 0.75 1.5578 18.386 2.9764 28.419 4.6562 58.656 0.59155 10.648 0.8496 19.132 1.0625 26.344-2.7975 1.5844-13.602 7.7752-19.5 12.781-12.885 10.937-19.699 31.052-34.125 47.281 0 0-74.998 18.462-108 30.562-33.002 12.101-71.53 18.7-93.531 27.5-22.001 8.8004-79.206 59.381-86.906 69.281-7.7004 9.9005-8.7864 2.208-29.688 91.312-20.901 89.105-2.016 117.96 44.625 135.12 31.273 11.51 78.938 13.406 78.938 13.406s97.415 55.199 292.12 69.5c194.71 14.301 403.21-83.905 410.91-105.91 7.7004-22.001 91.963-56.016 76.562-102.22-15.401-46.202-23.106-69.312-31.906-80.312-8.8004-11.001-64.918-74.8-79.219-82.5-14.301-7.7004-16.506-13.206-26.406-20.906-9.9005-7.7004-44.007-15.325-70.375-26.406-18.829-4.102-26.028-24.757-52.688-30.312 8.616-20.747 21.719-55.375 21.719-55.375s15.91 8.5501 26.281 2.5938c33.179-19.054 47.057-60.626 52.531-83.344 3.6664-15.216-6.2912-41.847-20-49.906l0.34375-4.8125 8.0312-4-4.0312-16.062 12.031 5.3438-4-21.375 5.3438 2.6562-2.6875-20.062 13.375 6.6875-4-28.062h6.6875l-5.3438-18.719 8.0312 1.3438-1.3438-16.062 16.031 5.3438-16.031-16.031 9.3438-4.0312-18.719-13.375s1.3488-12.007-4-13.344c-5.3488-1.3372-8.0327-6.7071-14.719-10.719-6.686-4.0116-10.688-5.3438-10.688-5.3438s4.8265-19.638-11.031-29.594c0.68835-10.157-6.0952-16.975-12.781-21.156-0.95433-4.5399-2.7783-14.715-23.562-13.781 0 0 20.572 3.8378 11.125 17.594-4.1318-11.916-17.594-15.852-17.594-23.875 0-8.0233-7.3472-11.468-11.375-18.5-4.7924-8.3675-23.21-5.9463-32.719-14.344-11.365-10.037-36.5-17.031-36.5-17.031zm-37.469 550.03 1.0938-1.6562 8.4062 0.5625v-5.0312l7.2812 1.125 1.125-6.1562 8.9688-1.125 0.5625-3.9062 12.312-4.5 2.7812 1.6875 8.4062-14.562s20.718-13.426 27.438-24.625c6.7194-11.199 28-58.25 28-58.25s-22.39 49.827-32.469 59.906-51.531 40.344-51.531 40.344l-7.2812-5.625v10.094s-1.6263-0.35531-3.375-0.78125l-6.1875-7.625 1.7188 5.7188v0.0625l-1.0938 10.469-6.1562-3.375v7.25zm-63.78-531.69c9.4872-0.21961 18.728 1.243 24.469 6.0312-11.533-1.339-33.921 0.99573-50.344-1.9375 6.6673-1.9567 16.388-3.8741 25.875-4.0938zm-25.719 27.844c0.34755-0.01596 0.71964-0.0093 1.0938 0 1.3813 0.03432 2.9608 0.24788 4.8438 0.75 10.042 2.678 23.438 9.375 23.438 9.375s-9.3808-2.678-15.406 0c-6.0255 2.678-17.406-0.6875-17.406-0.6875s0.67152 6.7103 9.375 8.7188 28.121 4.0105 31.469 11.375c-6.7659-0.61507-24.256-4.6029-34.844-5.25 11.616 5.1073 22.981 15.101 20.125 14.625-4.017-0.6695-16.062-6.0312-16.062-6.0312s8.0302 6.714 3.3438 5.375c-4.6865-1.339-19.416-6.6922-22.094-8.0312s-24.125 7.3438-24.125 7.3438l8.0312-6.6875s-23.427 8.0435-16.062 2.6875c7.3645-5.356 22.094-8.0312 22.094-8.0312s-24.106-8.0492-18.75-8.7188c5.356-0.6695 19.413 4.018 30.125 4.6875 1.7537-0.26305 3.7161-0.14862 5.75 0.25 0.41357-1.6754 2.9688-3.5938 2.9688-3.5938s-8.8383-5.5289-13.969-6.0312c-1.9401 0.22281-3.2411 0.25766-1.4375 0 0.42575-0.0608 0.92484-0.0502 1.4375 0 3.1011-0.35614 7.8885-1.1763 4.5938-2-5.356-1.339-16.742-2.6827-18.75-1.3438-2.0085 1.339 6.0333-8.0265 15.406-6.6875 7.1396 1.0199 9.5993-1.8544 14.812-2.0938zm55.188 1.4688c9.2867 0.05531 18.45 3.1974 26.344 9.7812-11.533-1.339-22.546-5.0355-38.969-7.9687 4.167-1.2229 8.4038-1.8376 12.625-1.8125zm41.688 0.8125c14.159 0 46.333 6.4284 55.344 21.875-12.872-10.298-32.174-10.29-55.344-21.875zm-45.688 27.875c11.385 0.0319 21.734 2.6604 31.469 10.625-12.872 0-24.538-5.0403-47.656-9.3125 5.6316-0.80451 11.013-1.327 16.188-1.3125zm-9 10.406c2.0516-8e-3 3.8273 0.0927 5.25 0.34375 11.381 2.0085 22.094 8.0312 22.094 8.0312s-28.119-7.3475-39.5-4 10.725 3.3438 16.75 3.3438c6.0255 0 19.399 5.3618 8.6875 6.0312-16.068 1.339-33.465-2.0228-36.812-4.0312-3.3475-2.0085-10.046-5.357-14.062-4.6875-3.5149 0.58581 23.232-4.9763 37.594-5.0312zm-69.531 0.1875c2.3856-0.0662 2.7702 0.36547 0.46875 0.15625-3.1148-0.28317-8.1746 2.4849-13.906 6.0625 15.1-6.4315 28.606-4.0234 39.219-3.4688 1.0683-0.0597 2.2319-0.0471 3.5 0.0937-1.1204 0-2.3036-0.0313-3.5-0.0937-9.0842 0.50725-11.25 7.4688-11.25 7.4688s6.7028 0.66575 15.406 3.3438c6.9508 2.1387 12.561 0.46067 14.562-0.3125-0.78457 0.43151-1.8438 1.3263-1.8438 3 0 2.678 30.784 6.6922 22.75 8.0312s-34.812 0-34.812 0l4.6875 5.3438s-10.713 3.3485-4.6875 4.6875 9.375 2.6875 9.375 2.6875-7.3597 8.0265 1.3438 6.6875 15.406-1.3438 15.406-1.3438 0.0105-4.0228 7.375-6.0312c7.3645-2.0085 29.445 0.68376 22.75 4.0312-6.695 3.3475-18.062 5.3438-18.062 5.3438l7.3438 2.6875-10.719 5.3438s1.338 6.0275-4.6875 9.375-31.459 20.772-28.781 18.094 5.375-10.719 5.375-10.719l-12.062-0.6875s1.9932-5.3522-8.7188-3.3438c-10.712 2.0085-22.062 4.0312-22.062 4.0312s11.356-10.058 6-8.7188c-5.356 1.339-21.423 3.356-17.406-2s14.75-14.719 14.75-14.719-0.0115-5.375-12.062-5.375c-7.2751 0-10.871 4.3939-12.594 7.875 5.4948-1.9686 11.25-2.5 11.25-2.5s-4.6885 13.376-9.375 18.062c-4.1584 4.1584-5.6875 12.004-10.188 14.188 5.7778-1.154 19.209-3.8026 21.562-6.1562 3.3475-3.3475 5.3597 2.0333-3.3438 11.406-8.7035 9.373-10.692 16.738-12.031 22.094s-17.42-7.3808-16.75-13.406c0 0-6.7055 8.02-7.375 18.062s-4-12.719-4-12.719-4.6875 8.7028-4.6875 17.406c0 8.7035-5.3438-8.6875-5.3438-8.6875l-5.375 7.375 0.6875-9.375-3.375-2.0312s8.7235-6.6705 10.062-10.688c1.339-4.017 7.3438-16.75 7.3438-16.75s10.05-26.117 15.406-28.125c5.356-2.0085-4.6875 20.094-4.6875 20.094s10.945-13.37 17.188-16.938c-0.63932-2.389-0.15858-6.0089 5.5938-9.8438 10.042-6.695 12.051 4e-3 22.094-3.3438 10.042-3.3475 22.091 1.3247 8.0312-4.0312-14.059-5.356-26.125 2.6875-26.125 2.6875s-8.015-2e-3 5.375-9.375 15.39-2.6743 24.094-3.3438c8.7035-0.6695 18.058-4.0265-0.6875-2.6875s-15.39-4.6875-24.094-4.6875c-4.325 0-8.4516 0.16325-9.4062-0.65625-4.4246 2.7522-8.8041 5.2568-12.688 6.6875 17.491-17.491 32.439-20.104 37.688-20.25zm111.16 11.281c0.54247-0.0148 1.0901-6e-3 1.625 0 14.976 0.15839 27.361 8.3319 39.75 18.469-12.872 0-21.887-7.7335-46.344-18.031 1.6895-0.24135 3.3414-0.39306 4.9688-0.4375zm-140.12 10.719c3.1801-0.0837 5.3438 0.25 5.3438 0.25-7.3645 10.042-16.051 4.6963-26.094 24.781-10.042 20.085-0.6875-8.0312-0.6875-8.0312l-2.6875-2s4.6848-9.3713 12.719-12.719c4.017-1.6737 8.2261-2.1976 11.406-2.2812zm170.62 43.844s-21.401 14.725-26.75 16.062c3.8014-0.8358 30.887-7.2544 40.125-10.719 10.698-4.0116-18.74 18.714-29.438 24.062 16.752-4.5731 30.56-5.5245 54.844-17.938 11.787-6.0251-0.7529 18.326-14.125 21 10.031 1.3177 28.812-4.375 28.812-4.375s-5.4749 11.359-16.531 19.062c24.708-5.8119 35.044-27.798 36.219-19.188 1.357 9.9499-3.3028 14.403-1.4688 18.625 10.144 23.351 2.6172 41.027 5.8125 45.375 3.5412 4.819 18.775 40.401 17.438 45.75-0.47339 1.8936-0.99435 9.2887-1.4688 18.406-13.826 3.4943-28.678 7.7591-31.25 7.4375-3.3278-0.41597 1.0229 1.042-3.9688 1.25-4.1716 0.17382-9.2004 0.0743-11.031 0.0313-0.37303-1.919-0.90287-3.5474-1.6562-4.5938-4.9917-6.9329-25.625-9.0764-41.938-9.875-0.27784-0.0843-0.52716-0.1603-0.84375-0.25-19.471-5.5167-28.229-6.822-38.938-0.65625 0.40289 0.1465 1.5339 0.34511 3.0625 0.5625-10.278 0.37195-19.54 1.0692-23.25 1.6875-5.7263 0.95438-11.259 4.3731-12.938 9.75-0.8159-0.33631-1.9757-0.79533-3.7188-1.4375-2.5873-0.95322-14.465-1.71-23.75-1.7812 0.12466-3.0975-0.24725-6.4411-1.375-10.281-3.6114-12.297-18.872-21.082-25-24.188l3.4375-2.1875 9.9062 4.1562-12.531-12.531 1.0625 6.2812-11-4.7188-1.5625-3.6562s-4.1856-0.5279-7.8438 1.5625l-3.6562 2.0938-0.6875 0.0937 2.8125-7.1562-4.75 3.9375 0.78125 3.4062-4.9375 0.78125 1.5625-4.1875-11.5 5.2188-7.3125 1.5625 0.8125-5.2188-8.6562-1.0312v-5.25l-8.3438 3.6562 2.5938 4.7188-3.6562 4.1875s7.3158-0.53655 9.4062 1.0312 1.5625 1.5625 1.5625 1.5625l7.8438 2.625 14.125-3.6562 10.969 2.625 8.3438-1.5938 8.9062 3.1562 2.125-1.3438c6.3436 3.8703 22.758 15.364 24.375 31.469 0.10131 1.009 0.12997 1.9546 0.15625 2.875-2.7364 0.0119-5.1562 0.11031-6.8438 0.28125-1.1557-3.6655-2.6508-7.6576-9.875-10.531-6.877-8.1649-15.324-11.114-23.75-10.719-5.798 0.27176-11.446 1.5258-14.781 2.4062-4.3046-0.60307-8.7672-1.165-13.469-1.6562-8.8461-0.92422-17.811-1.4623-25.625-1.5l0.53125-17.469c1e-3 -2e-3 0.0313-0.0625 0.0313-0.0625s-2.5e-4 -0.6949 0-0.78125c7e-3 -2.277 0.19044-32.926 5.3438-40.656 5.3488-8.0233 9.375-32.094 9.375-32.094 1.3922 3.8674 2.7955 7.8806 7.0312 12.156 0.84899-8.4332 11.688-2.8125 11.688-2.8125s1.3321-20.033 5.3438-26.719c4.0116-6.686 33.195-20.462 41.219-19.125-2.7181 7.2234-10.681 12.596-21.469 20.5 24.76-5.7659 44.362-26.471 57.812-26.781-5.2264 7.8528-18.136 11.74-22.75 22.719 21.661-12.046 30.325-16.375 40.5-18.125 0 0-20.371 21.599-22.406 49.75 10.175-21.029 19.244-36.28 42.094-47.656 16.282-8.1062 38.781-9.375 38.781-9.375zm99.219 35.406c13.997 6.4203 14.187 12.827 21.719 20.625-5.0297-2.3666-8.8641-3.8035-12.375-6.8125 3.7497 4.8754 6.4128 10.698 9.1562 15.5-5.1672-2.4312-9.8362-5.204-14.125-9.5938 2.5749 5.0966 4.0432 9.8164 6.1875 12.562-13.109-13.492-18.352-15.311-28.844-32 6.4918 2.1239 11.203 5.1356 14.75 8.5-0.78088-1.4283-1.5539-2.9509-2.3125-4.5938 4.6315 0.7146 8.2587 2.6709 11.25 5.3125-1.7569-2.3762-3.5169-5.4084-5.4062-9.5zm-18.844 13.469c16.734 16.734 16.75 39.906 16.75 39.906l10.281-1.3125s13.305 11.072 15.469 21.906l16.719-9.0312c-12.503-17.163 11.594 5.1562 11.594 5.1562l10.281-1.2812 2.5938 7.7188-14.156-2.5625 6.4375 16.25-10.781-2.4062c-0.37967 4.2091-2.8157 14.094-6.4375 18.844-0.22994-4.7791-1.0005-8.2074-2.3125-10.281-0.43153 3.6076-0.91163 7.1436-1.875 9.6875-1.1102-5.5323-1.8532-11.451-5.125-14.281 0.52927 5.8349 1.3642 11.476 0.34375 18.344l-6.8125-3.0938-4.5938 8.7188c-0.50855 0.0396-1.0773 0.0879-1.6875 0.15625l-5.2188-14.25c0.12804 2.1086 0.32622 8.2668 0.3125 14.969-2.0674 0.34826-4.3534 0.75914-7.0938 1.3438-2.0234 0.43167-4.1972 0.92963-6.4375 1.4688l2.1875-8.9688c1.8098-7.8302 3.726-15.618 2.9062-24.5l-7.7188 10.844c0.51568-15.477-0.5667-28.37-2.6875-35.938l-2.8438 17.75c-6e-3 -9.4123-8.7213-21.422-11.125-29.875 0 0 4.8929-22.409 1.0312-35.281zm-237.81 59.219-7.5312 2.375-1.1875 6.3438 8.7188-8.7188zm-43.312 5.0938c0.3886-9e-3 0.81686 4e-3 1.25 0.0313 0.5539 2.5161 1.0038 4.8345 1.2812 6.6875l-7.5 5.9375c-1.9443-6.4196-2.1536-12.497 4.9688-12.656zm155.25 6.3125s-6.7919 21.927-3.6562 15.656l3.1562-6.25 4.6875-3.6562 2.0938 6.25v5.25l10.969 1.5625s4.1889 3.139 9.9375 2.0938l5.75-1.0625 6.2812 2.625 1.5625-3.125 9.9375 3.125 5.2188 0.53125 6.7812 1.5625 12.562 3.6562 13.562 2.0938 11.5-2.0938-9.9062-4.7188-5.75 1.5938-6.2812-5.75 3.125 6.7812-4.6875-1.5625-5.25-7.3125 3.1562 6.7812s-8.3784-8.375-10.469-8.375c-2.0904 0 4.1875 7.3438 4.1875 7.3438l-9.4062-4.1875s-5.2341-8.8836-9.9375-9.4062-1.5625 3.125-1.5625 3.125-7.8418-6.264-11.5-5.2188-9.4062-1.5625-9.4062-1.5625l-5.75-1.5625-2.0938-2.625-5.2188 2.0938s1.5784-4.1702-3.125-3.125-9.9375 5.7188-9.9375 5.7188l-0.53125-6.25zm-151.34 5.625c0.33235 4.5542 0.87951 9.9641 1.0312 11.406-2.0097 0.0207-3.8912 0.0612-5.6875 0.15625-0.64598-1.5594-1.4339-3.4092-2.25-5.4375l6.25-5.4375s0.3093-0.35148 0.59375-0.65625c0.021-0.0225 0.0417-9e-3 0.0625-0.0313zm52.438 3.1875c-15.113 0.15742-28.562 8.125-28.562 8.125s24.415-10.94 45.25-3.8125c20.835 7.1279 25.771 21.648 26.594 24.938-3.0156-18.368-19.204-26.04-36.75-28.781-2.1932-0.34269-4.3723-0.49124-6.5312-0.46875zm-62.125 5.375c0.63635 1.2458 1.2552 2.3345 1.8125 3.25-2.6102 0.22897-4.8636 0.56282-6.6875 1l4.875-4.25zm21.156 8.125c-0.3092 0.0149-0.66321 0.0898-1.0625 0.21875-5.6598 1.8273-28.532 9.2635-28.875 9.375 0.0809-1.877 0.16357-3.7698 0.3125-5.6562-2.2357-1.5587-3.0899 32.614 2.8125 38.938s51.096 14.944 88.562 11.25c-36.119 1.6059-82.169-5.8257-87.781-13.031-3.1091-3.9918-4.3923-16.309-3.9688-29.688 0.57362-0.16114 24.263-6.8129 29.156-8.25 0.33483 21.267-2.093 30.276-2.0938 43.25-1.5e-4 2.5129 2.6857 2.1204 2.6562 0.28125-0.24446-15.259 5.3161-36.588 3.2188-44.562-0.36263-1.3788-1.1998-1.9649-2-1.9688-0.24989-0.11524-0.551-0.17484-0.9375-0.15625zm29.188 3.3438c-4.6648-5e-3 -9.5631 1.4563-10.531 4.0312-1.2342 3.2826 2.8125 4.25 2.8125 4.25s-0.71025-5.2812 2.0312-5.2812c2.1932 0-1.2484 5.636 5.625 8.8438-2.1932-3.564-5.554-10.497 3.2188-11.594-0.99854-0.16079-2.0798-0.24882-3.1562-0.25zm11.188 1.5c-2.9844 0.13605-2.6244 1.8369-2.625 2.5625-3e-3 3.0813-0.66155 10.854 11.469 11.375 12.13 0.52094 12.781-6.3982 12.781-9.375 2e-5 -1.192-2.0997-1.6285-2.2188-0.125-0.48827 6.1646-5.1447 8.4843-10.656 8.1875-9.6745-0.52093-8.4062-7.6769-8.4062-8.7188-9e-3 -4.0652 1.4155-3.1493 5.4375-2.6875 0 0-2.3051 0.73748-2.1562 3.9375 0.13485 2.8992 2.7658 4.4791 5.5938 5 2.8279 0.52093 5.1324-2.2942 5.2812-4.75 0.13625-2.2482-2.1666-3.8128-2.6875-2.25-0.26047 0.7814-2.0512 1.9632-3 1.6562-0.94884-0.30697-1.0491-2.095-0.9375-3.0625 0 0 1.4807-0.53182-5.2188-1.5625-1.0884-0.16744-1.9676-0.2189-2.6562-0.1875zm151.59 9c-1.1739 0.0546-1.6224 0.69196-0.53125 1.3125 3.9189 2.2286 16.844 8.0625 16.844 8.0625s-6.8102-5.2925-13.594-8.7188c-1.0354-0.52299-2.0144-0.68903-2.7188-0.65625zm-19.906 0.71875c-7.4351 0.25212-18.247 3.3916-19.281 5.4375 0 0 15.579-4.5432 14.281 0-1.2981 4.5432 2.2766 14.281 11.688 14.281 9.6102 0 12-10.062 12-10.062s2.5962 0.30299 8.4375 6.4688c5.8412 6.1658 10.24 3.1245 5.8438-0.625-7.5992-6.4817-18.32-15.212-31.531-15.5-0.46173-0.0101-0.94182-0.0168-1.4375 0zm163.84 0.0625c-8.2186 0.10373-24.777 13.483-26.562 15.938-1.9699 2.7086-8.5975 17.988-8.8438 25.375-2.612-4.0258-5.7412-4.1323-5.2188-2.2188 1.5338 5.618 4.8607 10.404 5.125 16.281 0.33947 7.5472-3.3167 10.817-5.8125 19.969 0 0 9.9321-11.04 11.281-19.5 0.5298-3.3222-0.35926-8.8782-2.4062-11.188 0.38202-1.7063 0.83053-4.6912 1.4062-8.0625 2.3909 1.9929 8.2315 1.3299 11.094 4.1562 4.3314 4.2771 10.036 4.3848 8.3125 12.312-1.7234 7.9276-10.254 7.4641-8.875 9.1875 1.3787 1.7234 10.686-1.3592 11.375-7.2188 0.68937-5.8596-3.4464-23.441-11.719-22.062-5.0264 0.83774-7.9897 0.5266-9.5625 0.15625 1.0416-5.3336 2.5179-10.948 4.8438-14 8.1111-10.645 22.051-17.277 25.844-15.25 10.794 5.769 8.6367 32.477 5.4375 40.875-1.9699 5.1709 5.8901-6.4029 6.875-12.312 0.98493-5.9096-3.4492-28.83-10.344-32.031-0.64636-0.3001-1.3998-0.41698-2.25-0.40625zm-263.62 1.4375c-0.30604 0.0199-0.63722 0.0999-0.9375 0.25 1.8516 0.7534 3.3085 2.4062 0.90625 2.4062-2.4023 0-1.398-2.3574-3.5-1.1562-2.102 1.2011-7.7188 1.3438-7.7188 1.3438 4.456 0.61351 12.029 2.532 13.594 1.25 1.8176-1.4896-0.20146-4.2332-2.3438-4.0938zm98.906 1.7188c0.42544-0.0291 0.92884-0.0162 1.5312 0.0313-1.0784 0.84591-1.625 2.1649-1.625 4.0625 0 3.7952 3.0958 8.0312 7.2812 8.0312s7.4375-3.361 7.4375-7.1562c0-0.72139-0.13598-1.3886-0.40625-2 1.7551 0.75299 2.9375 1.5528 2.9375 2.2188 0 4.794-4.5882 9.5312-9.875 9.5312s-9.4375-5.4872-9.4375-10.281c0-3.2959 0.28431-4.3094 2.1562-4.4375zm7.0625 1.875c1.5234 0 2.7812 1.3245 2.7812 2.9375s-1.2578 2.9062-2.7812 2.9062-2.75-1.2932-2.75-2.9062 1.2266-2.9375 2.75-2.9375zm119.03 0.78125c-0.18966 3.5712-0.50066 6.7852-1 8.9688l-2.1562-7.9688c1.5639-0.47741 2.3792-0.7619 3.1562-1zm-4.2812 1.3438-3.1562 22.281-2.875-8.4375-4.625 11.375 0.96875-22.312c3.6093-1.0906 7.0297-2.0962 9.6875-2.9062zm-147.69 0.46875c-7.1393 5.5167 4.5625 5.1875 4.5625 5.1875s-5.536-2.9159-4.5625-5.1875zm186.88 3.5938c-1.1832 0.0308-2.5603 0.81057-4.125 2.5-3.4217 3.6945 11.57 28.304 5.9062 44.062-3.7989 10.571-21.015 11.862-18.562 26.781 0.47977 2.9182 2.4571 5.5977 5-4 1.885-7.1146 13.163-16.762 15.312-22.531 4.0936-10.988 4.751-47.028-3.5312-46.812zm-250.09 26c-0.65845 2.1525-5.3804 9.4347-7.0312 12.406-1.7763 3.1974-3.9062 11.015-3.9062 16.344s-6.3849 25.566-9.9375 24.5c-6.2745-1.8824-0.69409-10.299 1.4375-14.562 2.1316-4.2632-1.0872-9.2467-3.2188-3.5625s-5.3273 17.056-3.9062 19.188c1.4211 2.1316 14.212 14.567 16.344 16.344 2.1316 1.7763 11.034 5.8752 17.406 6.4062 4.711 0.25329 13.81-13.912 23.469-11.375 3.5526 0 6.2708 1.8531 8.1562 3.1875 5.8573 4.1454 5.812 0.42317 8.1562-2.125 7.4606-4.9737 0.73519-18.115 2.1562-14.562 1.4211 3.5526-3.2089 15.262-6.4062 14.906-3.1974-0.35526-5.6908-3.5395-11.375-4.25-5.6842-0.71053-19.518 7.8289-23.781 9.25-4.2632 1.4211-13.414-1.754-16.344-3.2188-2.1316-1.0658-8.1744-9.5707-5.6875-17.031 0.89876-2.6963 7.4375-11.729 7.4375-15.281 0-3.5526 5.3438-20.625 5.3438-20.625s8e-3 -8.8901 1.6875-15.938zm-19 76.188-10.375 5.4688 3.0312 4.3125-4.875 6.6562 1.8438 5.5 5.0625-6.1875c-0.17117 2.2312-0.19745 4.385 0.4375 3.75l3.2188-5.0625 2.25 6.2812 3.5-4.2812 2.5938 4.9062 4.2812-6.125-1.8438-5.4688-2.5938 4.0938-1.6562-5.3125-4.5 4.5c1.0295-1.9456 2.2862-4.5454 3.875-8.1562l-9.125 6.6875s-0.16254 1.3954-0.3125 2.9375l-2.0312-4.5312 1.125 1.5938 6.0938-11.562zm10.969 15.219 2.4375 7.3438 7.9062-6.125-1.8125-9.75-8.5312 8.5312zm-59.125-11.562 9.75 5.4688 3.0312-4.875-12.781-0.59375zm26.406 1.9375-6.6875 9.125 1.8125 6.7188 3.6562-6.7188 1.2188-9.125zm53.438 1.7188-3.6562 11.594 4.875 8.5312 2.9688-10.156 4.7188 3.5625 2.6562 4.75 3.6562-9.75-4.25-6.7188-1.6875 4.375-4.4062-6.1875-3.2188 11.156-1.6562-11.156zm-64.625 0.59375-7.9062 10.375v1.6875l-5.5-0.46875-9.75 11.594 15.25-9.8125v5.5312l6.0938-4.875 1.8125-14.031zm20.719 0.625-6.6875 4.875v8.5312l5.4688-6.7188 1.2188-6.6875zm68.875 0-1.8125 6.0938 3.0312 4.875 3.0625 4.875 1.9062-3.5625 0.53125 7.8438 4.875 4.25-2.4375-10.344-2.5312-2.5312-0.59375-6.5938-6.0312-4.9062zm1.2188 10.969-1.8125-0.6875 0.59375-0.53125-5.4688-7.9375-3.6562 7.9375 3.6562 4.875 2.125-1.875 0.3125 3.7188 6.0938 6.6875-1.8438-12.188zm-107.88-8.5312-4.25 11.594 10.344-11-6.0938-0.59375zm74.375 2.4375-5.5 6.7188 3.6562 7.3125 3.0625-4.875-1.2188-9.1562zm45.094 3.6562 1.2188 12.812 6.0938-1.8438-7.3125-10.969zm10.375 1.2188 3.0625 6.4062-4.2812-2.125 0.59375 12.188 4.0625-9.25 3.25 6.8125 1.8438-8.5312-8.5312-5.5zm15.844 6.0938 4.875 17.062 1.2188-7.9062-6.0938-9.1562zm6.0938 0.625 1.8125 11.562 4.875-3.6562-6.6875-7.9062zm-10.375 2.4375-4.25 7.9062 8.5312 6.7188-4.2812-14.625zm-114.62 0.4375s4.2233 2.0057 5.5938 3.7188c1.3704 1.713 3.6516 9.7047 39.625 14.844 12.229 1.747 22.332 1.7446 30.75 0.96875-6.9044 0.10742-16.856-1.6772-31.594-2.9688-43.635-3.824-32.531-12.406-32.531-12.406 7.5373 0.68521 15.206 1.375 20.688 1.375 5.4817 0 6.5195 2.7523 12.344 3.4375 5.8243 0.6852 10.196-0.60427 21.25 1.0312 6.7868 1.0042 18.14 3.0949 22.594 3.4375 1.2631 0.0972 2.8769 2.752-1.625 4.5312 9.9272-1.8934 16.584-4.4364 21.031-4.625-3.6101-0.79024-14.711-1.4907-22.469-3.3438-4.7964-1.0278-18.596-4.9213-22.906-5.375-6.5095-0.6852-10.893 0.96875-16.375 0.96875-5.4817 0-8.0183-5.1864-13.5-4.8438-2.7568 0.1723-8.2336 0.65625-12.688 0.65625-4.4538 0-7.1686-0.0358-20.188-1.4062zm-15.812 2.5938-9.75 2.4375-0.59375 7.3125 10.344-9.75zm148.72 6.0938-3.6562 6.0938-1.8125 2.4375c-1.8284 2.4379 8.5312 2.4375 8.5312 2.4375l-3.0625-10.969zm-12.188 6.7188 1.8438 9.75 7.9062 3.6562-3.0312-7.3125-6.7188-6.0938zm-140.19 7.3125-7.3125 3.0312-1.8125 10.969 9.125-14zm161.53 5.4688 1.8125 9.75 5.5-4.875-7.3125-4.875zm17.062 0.625-3.0625 0.59375 6.7188 4.875-3.6562-5.4688zm-124.34 0.59375-1.8125 10.375 6.0938-4.875-4.2812-5.5zm9.1562 1.2188v12.531l-6.0938-2.1562 8.5312 15.844v-12.812l-2.3438-0.84375 5.375-12.562h-5.4688zm14 1.2188 6.7188 11.594-1.2188-11.594h-5.5zm-6.6875 4.875 1.2188 12.812 5.4688-10.969-6.6875-1.8438zm75.562 4.875 7.3125 7.3125 5.5-0.59375-6.0938-4.2812-6.7188-2.4375zm-140.78 3.6562-6.0938 5.5 11.562-5.5h-5.4688zm-100.44 4.625c-18.032 28.852-37.475 66.772-44.688 89.312-7.213 22.541-45.072 121.69-46.875 128-1.8032 6.3114 111.99-25.804 119.44-26 9.8812-0.26049 17.339 30.526 18.875 38.938-3.5196-4.3996-9.0914-34.152-20.812-33.25-11.721 0.90162-119.13 30.374-120.94 24.062-1.8032-6.3114 53.419-147.2 55.5-155.09 2.5823-9.7952 33.285-58.756 39.5-65.969zm226.59 2.6875 1.2188 10.969 9.1562 11.594v-12.188l-10.375-10.375zm15.844 0 7.9375 9.1562v-5.5l-7.9375-3.6562zm80.312 7.5938c7.4556 5.4223 32.073 63.792 37.531 73.344 5.4584 9.5522 60.719 60.385 64.812 65.844 4.0938 5.4584 2.4375 5.4792-1.6562 6.8438-4.0938 1.3646-59.809-2.4941-62.781-6.875-5.8467-8.6188-9.2675-9.3846-12.25-14.5 0.69903 3.3392 1.2113 14.807 1.1875 19.125-0.0358 6.4836-19.644 38.894-23.688 42.938-2.3588 14.826 5.5843 46.105-21.438 77.312-36.088 41.678-122.97 58.688-122.97 58.688s57.059-15.681 96.875-41.625c54.738-35.667 42.401-95.76 45.812-97.125 3.4115-1.3646 19.083-30.021 21.812-36.844 2.7292-6.823-1.3646-21.13 0-25.906 1.3646-4.7761 13.708 10.193 16.438 14.969 2.7292 4.7761 31.04 4.219 45.344 5.3125 12.055 0.92161 16.544 1.5797 14.562-0.96875-4.1879-5.3865-57.974-57.974-62.75-62.75-4.7761-4.7761-24.571-50.512-36.844-77.781zm-68.125 4.5938 2.4375 7.3125 7.3125-0.59375-9.75-6.7188zm-123.09 3.6562-6.7188 3.0625-0.40625 7.4062-1.4375-0.0937 1.2188 4.1875v0.0937l0.0313-0.0313 3.0312 10.375 3.5-8.0625 3.2188 6.8438 1.8125-17.062-3.25 4.2188-6.2812-0.375 5.2812-10.562zm110.31 0 5.4688 9.1562 7.9375-0.59375-13.406-8.5625zm-40.25 4.2812v13.406h4.875l-4.875-13.406zm22.562 0 4.2812 17.062 1.8125-10.969-6.0938-6.0938zm-41.438 1.8125v14.656l7.9062 1.2188-7.9062-15.875zm-42.062 1.2188v20.75l4.875-1.8438-0.28125-1.125 5.1562 3.5625-2.4375-15.844-3.9688 7.5-3.3438-13zm75.594 0 1.2188 12.219 7.9062-3.6562-9.125-8.5625zm-21.969 1.8438 1.8438 20.125 3.7188-5.3438 1.1562 10.812 5.4688-9.125-6.2188-2.25 0.125-0.1875-6.0938-14.031zm38.406 6.7188-1.8125 6.6875h4.875l-3.0625-6.6875z"/>
  <path d="m473.47 733.38c-23.455 54.728-50.819 86.001-68.41 29.318 14.565 26.607 33.56 40.885 68.41-29.318z"/>
 </g>
</svg>
