<?xml version='1.0' encoding='utf-8'?>
<svg xmlns="http://www.w3.org/2000/svg" enable-background="new 0 0 5000 4916.9414" version="1.1" viewBox="0 0 5e3 4916.9"> <path d="m1435.3 498.3c23.022 12.459 49.919 13.852 75.505 12.18 14.02-0.5573 29.154-5.1001 42.505 1.1432 31.718 24.666 56.636 56.636 86.431 83.421 22.827 20.82 43.871 43.508 66.754 64.273 4.6825 4.8776 12.208 9.2255 11.093 17.113 1.0312 125.48-1.505 443.17-0.7526 476.5 7.397 11.925 240.74 241.88 245.13 245.94 6.327 6.0763 13.239 12.598 14.382 21.852 11.264 53.139 65.819 97.736 119.26 77.902 48.176-17.691 103.35-103.03-8.5569-174.95 0.5854-151.57 0.3066-303.16 0.3345-454.76-0.613-9.2258 2.2578-20.625-5.2397-27.76-8.6682-7.3307-24.165-7.6648-31.356 1.923-11.52 11.663-4.5825 2.678-5.7417 373.68-18.613-20.438-37.884-32.914-103.74-103.82-6.076-7.1633-16.026-13.184-15.915-23.608-0.2465-95.23 1.2511-190.41 1.5671-285.64 57.307 10.241 109.21-33.85 109.21-91.309 0-44.392-31.184-81.482-72.835-90.613-17.561-21.936-37.887-41.406-57.896-61.063-81.792-82.795-95.237-93.052-94.375-106.92-0.6689-72.746-0.7524-145.52-0.5852-218.27-14.772-0.0837-29.545-0.0279-44.289 0.1953-0.4458 80.104 0.6969 160.24-1.2263 240.34-0.0558 3.6232 0.1672 7.6648 3.2888 10.145 28.572 28.455 138.26 133.79 137.3 141.46-63.053 28.202-74.158 112.65-21.151 156.35 0.0233 35.344 0.7135 276.97-2.2324 323.94 1.8953 5.7974 6.578 10.09 10.48 14.633 136.62 147.56 149.8 148.34 150.45 163.92 1.2264 12.403 1.338 24.973 4.6548 37.126-23.886 7.7482-41.725 25.782-60.176 41.864-20.542-19.594-38.463-41.669-58.977-61.263-50.532-47.912-99.949-97.05-148.28-147.19-8.3617-10.146-21.071-19.65-19.594-34.366-1.7549-339.97 2.0518-447.92-3.0659-472.85-6.5045-10.073-48.219-44.799-62.517-59.981-67.699-71.611-99.012-91.005-103.15-105.24 2.843-4.4595 6.8287-7.9993 10.564-11.706 38.637-38.352 56.451-93.475 38.629-146.51-30.19-89.848-148.87-123.98-225.04-69.843-76.193 54.15-87.817 185.88 19.148 241.78zm-2.2775-186.83c44.362-51.587 120.51-36.792 148.79 15.326 18.18 33.511 12.252 78.43-14.001 106.08-26.084 27.468-70.188 35.796-104.52 19.798-49.559-23.095-72.516-92.076-30.273-141.2z"/> <path d="m1548.2 941.27c-14.549 6.1875-29.377 13.239-40.024 25.308-41.643 45.26-19.46 140.77 53.403 151.99 41.357 5.3301 90.66-24.319 95.796-85.205 2.6199-38.881-24.137-78.07-62.378-87.49-0.2765-68.538 1.7697-148.15 0.5295-154.66-6.8048-9.0002-116.29-110.53-125.2-118.74-10.647-9.5045-19.817-21.629-33.502-26.897-7.0793 10.034-18.869 21.573-13.128 34.951 6.578 11.428 16.914 20.001 25.838 29.517 90.522 96.529 99.908 96.571 98.695 108.53l-0.0277 122.69z"/> <path d="m3464.7 793.69c38.461-38.95 75.589-79.129 114.97-117.15-10.146-7.9714-17.364-18.646-24.75-29.042-0.7805-0.2231-2.3691-0.6413-3.1497-0.8642-33.307 33.558-67.316 66.446-100.7 100.01-16.517 16.603-32.471 34.171-52.093 47.216 0.2744 48.236 5.001 133.63 3.2332 149.45-10.062 6.4665-21.155 11.651-29.6 20.291-28.456 28.511-33.687 78.57-19.315 105.91 15.869 35.919 66.423 64.254 113.63 40.916 44.135-22.237 77.583-87.809 26.089-144.43-12.357-13.588-29.294-21.183-46.351-26.813 0.1948-42.644-1.3103-85.344-0.4739-127.96 4.1527-7.3868 12.563-11.513 18.507-17.532z"/> <path d="m4596.3 1796.5c-52.344-6.2606-95.319 31.965-104.49 82.418-263.98 4.2196-230.95-5.0385-258.49 17.894-36.5 30.397-67.869 66.447-100.28 101.01-25.072 2.6498-501.88-0.1577-528.26 2.1183-39.959-100.68-154.68-69.08-174.45 2.4246-8.6682 25.169-1.5886 53.459 13.629 74.614 29.656 40.554 94.715 45.905 132.64 13.267 15.74-13.545 25.642-32.22 32.889-51.284 75.049-0.0754 522.93 4.0566 539.35-0.9757 33.78-31.887 109.86-100.82 120.99-113.72 28.054 0.1121 216.37 0.6685 227.85 1.3657 20.04 40.777 71.604 62.689 115.11 47.633 36.736-12.712 66.586-45.738 70.46-84.759 1.1587-48.269-41.009-86.51-86.961-92.006z"/> <path d="m332.54 1845c-31.396 55.819 8.552 119.93 54.155 129.35 20.458 5.853 41.529 1.4215 62.071-1.087 0.2886-4e-4 311.48-1.2273 319.92-0.2509 9.8947 8.752 18.2 19.176 27.649 28.43 13.462 14.661 28.569 27.76 41.418 42.978 2.62 4.2087 8.2502 1.756 12.236 2.1462 76.694-4.7242 193.95-1.0275 540.72-3.8185-0.9977 0.0078 5.3474 21.177 6.1532 23.013 25.867 58.934 104.18 66.932 145.05 22.964 20.492-22.044 27.978-54.894 20.569-83.887-7.7936-30.498-34.897-54.524-64.269-63.99-35.84-11.762-84.75 3.3304-105.8 58.448-1.8011 6.7086 13.507 1.2875-522.77 5.7136-10.062 0.6134-17.392-7.442-24.109-13.713-23.692-24.935-49.885-56.317-56.094-62.792-87.88 0-217.93 1.7919-259.75 1.808-11.539 0.2229-23.078 1.5886-34.617 0.4457 43.549-131.06-113.35-173.19-162.52-85.762z"/> <path d="m1387.1 2934.8c5.8531 8.4175 9.6996 18.061 15.915 26.283 70.937 99.573 206.42-10.562 154.19-93.009-21.796-39.718-76.927-62.684-118.18-39.411-26.144 12.849-46.1 37.265-52.176 65.945-16.782 0.3352-483.94 1.7485-536.68 2.2017-12.041 1.4495-18.061-10.675-26.646-16.612-22.994-15.998-53.821-17.977-79.742-8.3337-44.148 17.723-69.278 68.951-51.878 114.12 20.102 52.182 83.142 69.373 128.92 39.466 23.836-15.57 39.071-43.45 41.193-61.003 1.1392-9.4263-1.3693-19.487-2.2359-28.893 91.616 0 501.56-5.8177 527.31-0.7527z"/> <path d="m4133.2 2987.9c10.48 27.092 34.003 49.863 62.795 56.134 73.852 17.595 133.1-64.418 98.823-130.09-20.492-39.256-72.456-60.095-114.18-43.833-13.518 4.4316-24.332 13.936-34.534 23.441-133.21-5.22-252.61 3.6592-541.16-0.8643-1.5049-7.804-2.9822-15.72-6.522-22.883-20.43-43.676-80.522-62.684-122.36-38.798-51.548 29.306-62.8 96.966-22.242 136.41 10.814 10.257 23.19 19.427 37.488 24.221 46.064 15.181 96.377-5.4172 112.85-58.532 174.84 1.7839 349.68-2.3691 524.55-1.3098-2.0341 18.73-2.5361 38.268 4.4879 56.107z"/> <path d="m3498.1 4420.2c-16.835-1.1987-33.056 4.292-49.696 4.8496-40.22-37.767-77.847-78.404-117.98-116.34-60.144-58.525-48.464-49.51-49.055-72.914-3.6099-143.02 0.5852-286.11 0.1672-429.17-0.7524-8.7517 1.1985-19.26-5.5745-26.088-45.292-45.71-89.481-92.612-136.41-136.66-35.906-33.703-71.13-68.175-105.08-103.8-0.8643-12.431-0.0989-25.15-5.1287-36.931-17.654-41.35-62.684-70.711-107.73-63.994-80.418 11.916-97.999 118.1-24.528 165.64 3.8943 2.5198 8.5845 4.1528 11.818 7.7207 3.5979 153.97-0.1033 400.87 0.4739 459.55 13.964 0.3066 27.955 0.1675 41.947-0.0557 1.7576-48.669 0.3147-159.25 1.2266-344.72 16.064 13.278 88.506 83.05 119.79 118.57 3.2012 507.15-4.1978 497.09 7.0796 507.66 2.8157 3.0322 120.85 126.64 148.56 153.13 2.2021 41.362 1.0034 82.919 1.8118 124.37 15.274 0.167 30.548 0.0557 45.849-0.3623 1.2825-39.662 0.7527-79.38 0.8086-119.04 1.282-13.88-11.494-22.523-19.315-32.108-41.997-51.468-92.257-95.351-137.8-143.6-6.2153-6.7173-3.679-16.612-4.4873-24.834-3.158-542.56 8.3333-469.81-13.602-495.04-40.292-46.329-123.01-117.17-139.95-138.83-4.8499-20.458-2.23-42.087-1.8118-62.935 7.8882-8.5415 18.353-4.1724 54.406-35.286 69.107 67.546 204.6 207.1 224.48 222.31 1.6008 36.591 1.1135 26.56 2.8708 476.5-1.282 8.6963 6.6057 13.602 12.236 18.646 41.696 36.234 79.268 76.871 120.41 113.72 11.456 11.79 24.89 21.852 34.785 35.063-1.8691 12.613-32.306 24.134-49.501 80.94-16.558 70.298 23.983 146.9 93.092 164.7 34.31 8.083 71.77 11.288 105.11-2.4531 42.198-16.416 74.837-55.911 81.944-100.7 0.4177-0.4741 1.2261-1.4214 1.6443-1.8955 0.7249-10.758 1.5327-21.489 1.4773-32.22 1.3249-70.606-68.362-134.96-144.35-133.4zm85.177 179.3c-26.304 60.768-108.03 64.112-146.36 29.126-48.958-46.478-39.041-141.63 39.968-153.88 30.297-6.4937 63.938 0.4185 87.908 20.458 29.127 25.112 34.116 70.46 18.479 104.3z"/> <path d="m1444 4290.9c14.884-8.5566 25.698-22.17 37.878-33.92 34.965-33.73 70.533-66.84 104.05-101.98 14.709-15.425 7.1315 4.9731 10.04-149.56 37.898-11.671 65.444-46.96 65.444-88.686 0-51.245-41.542-92.787-92.787-92.787-51.245 0-92.787 41.542-92.787 92.787 0 44.348 31.122 81.407 72.711 90.584-0.1122 39.591 1.0341 79.254 0.0865 118.79-9.3373 12.71-21.359 23.194-32.192 34.618-78.924 83.226-88.932 84.119-87.909 100.17-1.1426 12.18 5.1286 23.663 15.469 29.99z"/> <path d="m3509.7 3941.9c2.7871-18.981 2.2375-39.083-5.7419-56.915-39.965-89.314-133.99-60.506-154.69-6.6892-18.913 51.392 1.509 108.4 54.044 126.09 0.6689 18.591-1.0312 37.209 0.1951 55.828 1.0312 24.082-1.2542 48.414 1.9512 72.384 1.4773 14.494 13.857 23.557 23.162 33.335 38.936 40.92 81.247 78.516 121.47 118.18 8.9189-10.368 18.535-20.151 26.507-31.272-21.462-21.545-44.115-41.936-64.357-64.635-73.929-82.905-61.929-56.545-63.911-77.68 0.3625-35.314-1.8674-70.628 0.1392-105.91 31.189-5.0171 53.877-33.363 61.235-62.712z"/> <path d="m4958.7 4762.5c-35.621-35.007-68.51-72.718-105.27-106.58-40.905-37.199-75.947-77.786-84.146-79.826-15.413 6.4106-24.973 21.378-38.352 30.882-0.271-0.2793-1284.3-1269.4-1320.8-1308.4 18.7-60.686-26.789-122.01-90.057-122.01-23.644 0-45.236 8.7285-61.78 23.114-13.466-9.7366-23.772-23.145-35.742-34.562-37.274-41.36-193.43-193.24-208.01-215.9-4.376-5.8811-4.8218-19.26 4.7661-19.566 29.154-3.5955 58.782-1.8396 88.048-0.9475 15.497-10.954 25.642-27.454 36.652-42.533 14.354 17.976 226.61 231.38 273.82 284.32 134.87 144.44 274.15 281.57 306.9 311.89 37.878 35.454 72.133 75.366 114.44 105.69 40.479 1.876 81.206-0.3853 121.78 0.9844-6.1648 74.044 70.987 124.85 136.04 92.476 0.2656 0.2791 219.94 215.59 406.29 405.22 20.259 84.459 133.74 101.19 177.46 25.735 8.1831-10.119 5.3921-5.5386 56.912-6.1865 3.6792 12.849 7.1914 26.088 15.135 37.126 15.413 21.238 39.383 38.073 66.363 38.854 44.651 3.5396 86.181-38.658 83.143-83.115-0.4463-24.248-13.964-46.769-32.889-61.318-32.806-25.252-84.954-21.378-111.85 10.842-6.0767 5.3237-9.3096 16.64-19.009 15.413-14.948-0.4895-29.914-0.3923-44.848-0.8613-0.4941-52.907-43.517-95.648-96.54-95.648-40.792 0-75.649 25.307-89.798 61.065-64.732-61.974-333.79-334.11-364.52-367.61-3.1899-3.5962-6.8574-6.8276-10.305-10.218 10.628-15.274 16.876-33.824 16.876-53.842 0-92.302-119.38-129.59-172-53.744-32.339 3.3523-64.99 1.5571-97.428 2.0229-12.403-0.7524-25.419 1.6724-37.321-2.5085-15.469-13.239-27.398-30.158-42.338-43.982-32.332-30.492-64.468-61.179-95.908-92.563 48.609-0.5295 97.218 0.0557 145.83 0.1394 1.3103 8.0552 3.5957 16.138 8.4453 22.911 56.13 81.107 158.5 48.979 174.78-26.592 40.53-1.7061 81.178-1.4275 121.72-2.3113 61.705 54.737 126.72 128.44 142.4 141.98 4.376 4.7385 11.205 3.7632 17.085 3.8743 69.206-1.5884 138.52 0.9756 207.67-2.4248 9.1704 6.2156 16.417 14.912 25.698 21.099 45.208 31.858 109.29 39.913 158.15 11.623 29.238-17.002 55.828-42.449 65.639-75.673 9.5879-33.363 8.8633-69.625-1.8398-102.6-27.585-84.98-166.22-130.85-250.4-36.317-2.9268 2.7034-5.6021 6.801-10.146 6.1321-9.0781-1.3367-18.637-1.6006-27.059-5.9373-7.3799-3.7998-190.84-189.57-196.17-193.35-12.459-3.1497-25.615 0.2229-38.324 0.1113-118.09-1.0371-127.4 4.4978-134.4-2.6758-16.668-14.967-30.492-33-47.801-47.215-34.329-4.8486-6.7034 3.1494-623.47 1.3657-13.49 1.3657-20.374-12.57-29.628-19.845-223.05-223.94-227.87-238.28-262.22-267.35-2.2573-2.3411-5.7415-4.4595-5.407-8.0828-0.7246-20.04 0.2229-40.08-0.5017-60.12 23.492 0.1023 46.983-0.2463 70.475 0.2954 7.2341 42.404 44.136 74.69 88.601 74.69 44.547 0 81.504-32.404 88.643-74.923 72.772-2.8579 906.3 0.8271 906.02 0.8291 3.9575-0.0278 8.3618 0.4182 11.093 3.8464 66.447 69.123 134.15 137.08 201.15 205.72 7.916 7.4138 14.215 17.587 24.611 21.768 10.285-4.0691 19.371-11.455 25.754-20.486 4.6265-8.9189-4.6548-16.305-10.062-22.131-27.409-25.6-143.08-145.35-171.64-171.05-15.943-15.72-32.666-30.687-47.048-47.856-4.4873-5.1562-9.5317-11.455-17.197-10.118-100.55 0.0317-924.37-2.467-925.6-2.6521-26.072-82.436-143.28-84.108-170.98-1.4277-24.489-0.8611-49.012-0.8965-73.493-0.5469-0.1396-46.128 0.1672-92.229 0.1394-138.33 145.58 1.1985 1200.6 1.2544 1349.8 3.5679 0.3066 15.58 1.0869 31.3 4.2363 46.602 10.592 47.354 49.529 85.26 94.877 100.34 79.778 26.716 163.31-28.906 178.6-88.214 37.173-144.13-108.65-235.17-215.01-166.05-23.02 14.96-45.255 39.366-56.349 64.651-58.29 2.9531-1203.1-2.1396-1357.4-1.0872-0.167-47.494 0.4739-94.988 0.9202-142.48 204.25 0.7524 892.41-1.0312 1032.2 0 4.1528 11.985 9.2812 23.719 16.472 34.227 27.267 40.956 83.78 54.779 127.18 23.58 56.508-37.824 52.759-138.34-29.35-157.12-60.096-8.2524-99.152 19.018-113.55 58.587-112.21 0.2229-966.27-0.3623-1033 1.1428-0.1396-48.414 1.5605-96.828 1.0312-145.24 27.203-1.0034 54.462-0.4182 81.693-0.2791 7.4697 15.246 20.653 27.008 35.537 34.812 40.108 20.932 96.549 4.4316 116.67-36.763 115.01-2.7341 1111.2 0.959 1117.3 3.3445 2.7051 1.051 0.8135 12.149 11.226 34.911 38.393 83.922 163.71 107.32 233.53 35.586 66.952-68.795 46.239-181.71-39.746-223.76-56.97-27.864-134.26-14.038-179.63 43.02-16.317 20.52-21.917 43.524-27.38 68.773-78.105 1.865-1018.7 0.7048-1109.8-0.0281-25.44-67.051-96.684-95.873-144.57-41.836-9.3931 10.564-13.128 24.472-18.479 37.209-25.392-0.1392-50.755 1.1707-76.119 0.6133-0.0557-25.921-1.0034-51.982 1.0591-77.791 42.477-43.982 83.812-89.386 129.55-130.16 16.702-16.243 97.749-97.134 112.35-115.36 18.74 11.545 35.04 3.2217 282.2 6.1875 12.347-0.3905 26.785 3.8181 36.735-5.965 18.842-16.388 34.506-36.01 52.428-53.375 9.2258-8.5011 15.943-19.455 25.81-27.259 104.83 3.0383 209.77-1.8392 314.62 0.9758 5.6025-0.0558 11.511 0.8081 17.086-0.8363 6.8564-6.2153 9.7549-15.943 17.169-21.545 54.323-1.8396 108.78 0.3341 163.16-0.6968 10.654-0.3892 56.535-54.494 97.859-92.675 18.033-17.308 37.098-33.558 53.933-52.093 10.647-12.124 21.656-26.59 38.324-30.157 9.5322-0.5298 22.298-4.0138 28.541 5.6301 16.611 20.124 37.46 37.6 62.489 46.045 25.085 8.5565 52.595 11.957 78.683 6.1038 26.172-5.3236 52.065-16.305 71.213-35.37 19.873-18.48 37.683-40.638 45.542-66.977 33.02-118.15-112.64-247.06-241.9-143.24-7.5718 6.9215 4.2261 1.226-234.71 1.5052-5.8252-0.9755-8.9746 4.4039-12.542 7.8322-100.19 106.27-102.17 98.816-125.76 127.74-13.1 2.6198-26.673 2.1459-39.94 2.1459-29.935-1.3657-59.925-0.1671-89.832-1.7002-6.2434-37.265-39.857-69.234-77.986-71.297-43.403-5.0463-92.468 25.607-97.748 77.568-52.093 0.2231-104.19 0.5294-156.25 0.0278 43.264-38.368 128.28-130.73 144.74-144.99 46.351-1.7001 92.814-2.9266 139.22-1.8114 6.8564 16.054 22.883 25.335 38.073 32.275 43.547 19.721 116.11-18.726 123.36-79.77 2.7593-19.956-10.396-37.014-23.775-50.114 27.927-34.976 27.367-31.087 245.97-247.73 36.903-32.638 69.876-69.429 106.3-102.57 14.466-14.131 30.019-27.426 42.199-43.704 4.4038 9.811 8.7515 19.901 16.166 27.928 28.485 31.356 81.47 37.098 115.22 10.954 16.055-11.26 26.813-28.29 35.091-45.71 5.686-11.79 4.4043-25.252 5.4077-37.906 15.357-0.2783 30.91 3.9859 46.101-0.1113 3.5952-0.1392 9.1138-3.2053 11.399 1.3099 43.727 73.017 119.12 52.03 145.07 13.211 48.571-78.468-54.143-181.8-137.6-81.888-7.5249 8.8356-11.176 20.068-17.587 29.6-18.033 2.9821-36.792 1.4769-54.963 0.6968-12.542-4.4598-19.901-17.281-31.97-22.883-41.362-25.141-99.057-9.6995-125.73 29.656-8.1104 11.009-12.013 24.639-20.987 34.98-68.594 63.242-133.62 130.27-201.4 194.41-69.151 71.575-142.96 138.41-215.2 206.75-9.3601 0.0317-52.947-17.625-95.88 34.032-12.765 15.107-19.231 34.227-21.963 53.57-18.675 0.7805-37.376 0.6414-56.023 1.2544-21.879-0.5576-43.982 2.5365-65.611-1.7001-16.504-3.0044-22.76 20.654-145.58 131.58-0.2861 0.2692-207.46 202.39-323.9 331.01-33.92 33.057-63.353 70.349-97.302 103.35-1.4719 1.4363-119.09 122.49-137.52 143.74-30.443-50.975-56.479-33.972-84.257-39.439-18.591-3.679-40.359 3.3724-55.8-10.786 9.4805-17.439 71.346-76.609 95.072-100.37 142.76-140.35 139.57-145.99 164.31-165.62 22.688 8.3617 47.383 13.184 71.492 8.8914 36.819-7.6926 67.395-42.17 66.642-80.494 3.3506-29.928-24.767 6.962 108.42-126.76 304.2-295.61 396.78-382.63 433.47-419.42 795-796.64 776.93-780.48 791.62-787.47 16.026 4.2924 24.723 21.071 38.909 29.126 117.78-128.8 216.3-218.14 230.95-238.61-41.474-34.645-76.899-75.979-119.63-109.18-8.3618 5.1845-15.413 11.985-22.214 18.981-71.607 74.026-42.926 35.692-213.7 214.87 19.12 15.664 39.578 29.823 57.277 47.131-88.823 95.772-1315.2 1304.1-1328.3 1316.1-54.259-44.827-142.84-3.6965-141.31 63.493-0.613 12.626 4.9336 27.956-5.7136 37.85-37.209 40.749-78.348 77.707-116.95 117.17-31.049 29.935-60.677 61.318-91.616 91.336-15.357-43.397-49.835-83.783-96.856-92.591 24.986-46.027 459.45-473.41 604.71-619.35 38.921-38.273 152.66-163.04 156.47-166.84 62.461-63.883 431.4-435.39 512.82-515.69 10.981-9.4766 6.7729-24.834 6.606-37.432-1.4214-55.883 0.6411-111.85-2.4526-167.71-13.267-0.7247-26.535-0.5294-39.774-0.3899-0.5015 60.789 0.0283 121.63 1.4497 182.42-29.053 19.227-48.198 47.755-115.31 113.33-119.46 121.19-241.09 240.2-360.53 361.39-13.267 16.249-28.04 31.244-43.481 45.431 0.2769-296.19-3.2209-283.44 3.4561-291.79 8.8845-11.585 182.14-181.31 248.45-251.74 36.317 10.954 72.272-15.859 88.299-46.992 29.191-56.625-23.754-135.17-87.909-128.27-47.968 1.9509-91.532 48.971-83.867 97.692 1.8674 24.639 12.32 48.637 30.52 65.583-19.407 25.196-192.67 195.6-218.35 224.2-6.968 8.1942-17.058 12.459-25.085 19.231-2.7871 116.73 0.502 233.51 0.0281 350.27-1.894 27.571 17.367 1.7335-226.27 243.21-30.181 28.564 4.3679-3.1619-198.76 199.81-17.894 17.448-33.781 36.819-51.647 54.267-21.383 20.213-180.15 180.84-223.81 230.47-9.0024 10.424-20.151 20.626-20.987 35.37-27.064 0.5576-54.1 2.007-81.136 2.1183 0.2227-17.337 1.6443-34.729-0.4741-52.009 0.2229-3.679-1.5886-8.3059 1.2263-11.26 9.1978-3.7344 19.037-6.2433 27.426-11.818 57.521-38.253 50.457-128.37-26.562-150.68-2.8979-119.97 0.0166-901.38 0.1116-1087 63.865 7.7703 88.218-11.708 109.15-18.925-0.1113 48.162 0.167 96.296 0.5288 144.46-85.186 27.204-83.302 148.91 2.6609 173.47-1.1775 151.55-1.1785 303.12-0.5137 454.66-0.3904 25.308 2.1462 50.839 0.2786 76.007-13.323 7.6648-26.897 15.441-37.153 27.175-20.319 20.876-29.433 53.152-19.315 80.968 11.664 34.944 52.369 68.025 88.912 64.886 42.074-3.8949 83.091-36.867 88.689-96.465 263.51-262.6 250.74-237.49 251.74-252.86 1.7024-36.997-1.8396 112.02-1.8396-468.42-1.1431-8.7798 3.679-16.445 9.6714-22.354 15.933-16.214 141.7-142.23 161.55-160.4 26.73 4.2366 54.072 9.1142 81.052 3.8188 67.813-11.121 121.08-78.46 115.75-147.05-2.5645-29.294-11.762-59.144-32.192-81.024-45.148-52.815-130.02-71.83-202.52-23.859-64.209 44.658-88.045 156.64-0.3904 225.54-18.717 22.436-7.7039 4.1976-169.24 164.75-7.7466 6.0511-6.9077-18.097-5.2681 492 0.7249 5.1008-3.5674 8.4731-6.6055 11.874-102.57 101.32-118.32 117.15-221.03 215.06-28.473-49.172-61.082-33.5-59.117-45.738 0.5854-13.434-0.7803-28.82 8.6406-39.662 39.703-51.526 64.878-64.55 149.81-153.55 4.125-4.0416 4.8499-10.062 4.7939-15.552-0.0557-89.246-0.8921-425.8-1.8955-504.82-1.0869-7.1909 5.6025-11.539 9.8391-16.221 36.624-34.952 72.272-70.962 110.71-103.93 2.23-2.2857 5.3237-4.5714 5.1562-8.167 0.8921-15.803-3.1497-31.3-6.0759-46.686-7.637-35.537-13.88-71.38-22.437-106.69-7.5251-31.858-14.828-63.716-21.406-95.768-14.522-0.3903-29.043-0.279-43.508-0.1116 2.1919 28.74 32.554 179.91 40.804 215.65 0.4741 7.9156 7.9717 17.225 2.5366 24.277-119.73 109.83-119.59 104.62-118.21 112.85 1e-3 0.2809 0.9939 518.44-0.4736 526.14-27.013 30.595-91.115 92.299-118.46 113.55-0.5527-139.37-0.2268-278.76 0.3767-418.13 41.556-8.2501 72.887-44.902 72.887-88.881 0-44.568-32.181-81.596-74.567-89.182-1.0579-118.89-2.9856-68.493 0.9697-170.63 37.506-52.181 31.923-141.4-13.858-186.1-47.477-46.355-120.96-54.616-184.22-17.871-24.998 14.521-45.906 34.872-57.593 82.7-10.118 41.418-1.5051 86.181 20.96 122.16 9.2817 15.358 20.012 31.356 37.126 38.742 2.1182 220.5-1.115 952.05-0.4182 1097.3-74.858 27.778-78.697 128.01 1.0591 158.59 0.1116 21.935-0.9753 43.871-0.3623 65.834-44.484-0.5297-88.94 1.8397-133.4 0.5018-0.0088-0.2814 4.3496-1554.4 4.7344-1579.7-10.807 0-40.096 0.2599-43.226 0.278 0.6687 110.18-0.4463 1431-0.9758 1578.5-52.511 0.6688-105.05-0.5852-157.56 1.087 0.1116-77.206-1.3657-1518.6-0.9475-1579.5-13.936 0.2511-27.844 0.3348-41.752 0.0837-1.2542 111.99-1.8953 1164.5 2.3413 1578.7l-136.46-0.0276c0.251-25.503-1.1428-51.173 0.6689-76.565 10.145-5.853 21.768-9.7273 29.684-18.842 30.42-28.657 30.539-92.162-28.012-115.86 0.6409-207.2 1.3098-1081.6-0.251-1115.1-0.0391-0.8354 12.712-8.2886 14.162-9.4326 54.907-43.304 67.858-142.82 21.496-201.36-47.876-60.449-145.74-64.928-202.74-18.956-52.576 42.417-68.693 121.66-34.062 180.25 25.007 42.31 72.851 67.586 121.63 67.231 12.738-0.6131 25.336-2.8985 38.101-3.6232-0.1116 83.588-0.6411 1061.9-2.0903 1095.3 1.1428 6.7449-6.0762 8.9469-10.564 11.846-47.186 24.737-48.358 93.905-1.979 120.41 3.7627 2.843 10.313 4.125 10.341 9.9784 0.3345 24.945 0.7805 49.919 1.1428 74.892-26.367-0.1113-52.706-0.2225-79.073-0.6689-0.5298-8.1942-0.5576-17.113-6.9961-23.134-36.242-43.347-389.56-405.37-420.92-431.85-20.068-24.499-44.79-44.484-66.809-67.088-34.227-33.614-66.893-68.76-101.82-101.68-20.235-19.761-37.962-42.003-59.674-60.287-19.873-16.361-35.147-37.21-52.399-56.106-17.13-20.011-14.554-11.608-15.33-67.172 0.1115-101.32-0.7526-202.69 0.7245-304 1.0592-8.1942-6.717-12.821-11.455-18.117-188.71-189.33-210.98-204.78-228.13-231.98 30.854-25.28 41.641-72.941 21.908-108.12-41.7-73.951-137.39-64.447-163.11 1.3657-22.514 54.364 15.449 116.03 69.429 120.74 6.0204 0.7247 12.487-1.282 18.284 0.8363 0.288 0.2658 232.24 235.3 232.51 235.57 18.472 20.684 14.236 15.757 13.936 38.854 1.6725 88.689 1.7002 177.41 2.1183 266.09-9.0863-7.7764-16.946-16.835-24.862-25.754-15.134-17.364-32.499-32.554-48.971-48.581-17.559-16.807-33.391-35.342-50.783-52.316-74.897-73.769-377.05-374.44-388.45-391.57-1.8953-60.316 0.9756-120.88-1.6443-181.2-13.825-0.5573-27.649-0.92-41.502-1.2266 0.2788 67.367 0.0837 134.9 0.5295 202.18 202.35 211.43 499.14 500.1 544.15 554.18 46.156 47.662 90.919 96.688 138.47 142.98 44.302 44.936 347.89 342.88 396.79 400.35 0.2866 0.3093 123.33 125.24 137.49 138.44 21.908 22.548 45.905 43.508 64.245 69.234-12.598 3.4006-25.642 6.4664-36.568 13.964-30.102 20.207-48.497 52.985-59.953 86.599-32.75-28.792-63.13-60.148-93.176-91.699-48.522-47.31-120.98-115.03-131.38-129.86 3.9335-10.014 6.1173-20.908 6.1173-32.319 0-76.618-90.367-116.06-146.82-66.475-35.013-35.196-152.34-144.91-190.15-184.38-620.76-618.65-1034-1036.3-1133-1135 15.553-20.876 40.303-32.053 57.277-51.508-213.1-199.21-223.19-214.92-245.27-228.47-38.491 35.76-73.331 75.282-109.17 113.61 7.832 9.7552 18.117 17.281 26.005 27.064 30.576 37.042 66.308 69.318 99.197 104.24 104.41 102.86 100.81 105.77 107.39 101.29 12.765-8.891 22.744-21.155 35.425-30.213 0.2795 0.0836 1313 1305.8 1324 1322.6 1.7845 9.8435-1.8567 9.6962-1.8567 27.157 0 75.124 87.259 115 144.24 68.669 6.995 5.1355 12.756 11.86 18.914 17.949 83.622 87.416 224.54 217.27 233.85 237.61 3.0939 5.5745-0.028 11.79-1.1707 17.448-29.823 2.1183-60.204-2.6477-89.636 4.125-18.981 4.8218-36.29 18.897-39.941 38.909-8.9191-11.372-19.065-21.684-29.21-31.914-231.12-241.98-190.92-197.38-248.82-267.65-16.98-20.61-228.73-238.26-261.32-270.22-28.095-27.621-56.079-55.382-83.923-83.31-22.298-21.796-46.268-41.892-67.506-64.747-40.61 4.571-81.442 1.0312-122.16 1.1986-2.2798-81.822-69.367-118.86-136.88-94.988-39.556-33.762-387.33-378.6-401.99-397.68-2.9604-52.758-46.668-94.631-100.17-94.631-40.406 0-75.211 23.897-91.114 58.317-17.013 1.0452-34.16 0.2756-51.158-0.4185-5.3538-32.546-31.135-61.764-63.298-70.448-79.265-21.404-141.69 77.332-74.168 138.57 37.305 32.756 109.22 24.978 132.56-27.677 52.029 0.8818 46.838-1.8001 46.838 1.9979 0 55.416 44.924 100.34 100.34 100.34 38.105 0 71.248-21.241 88.237-52.528 10.514 10.606 356.75 354.93 376.35 374.99-20.848 27.956-25.503 67.088-10.368 98.723 29.48 66.716 127.64 79.785 172.67 6.6615 36.317-0.5018 72.579 1.8396 108.9 1.8118 10.898-0.7247 18.368 8.6127 26.339 14.577 47.996 42.477 92.034 89.163 135.24 136.43-48.107 0.6134-96.214 0.1674-144.32 0.3347-5.3091-53.536-95.99-96.423-141.95-67.423-21.322 12.877-36.847 34.812-41.111 59.451-33 2.8988-66.085 0.1116-99.141 0.2789-10.703-0.3069-21.517 0.1949-32.164-1.3656-7.609-2.4253-12.292-9.5883-18.256-14.466-50.179-42.833-91.476-94.402-119.21-122.22-50.281 1.1146-204.72 3.3724-231.64 2.7872-10.257-5.24-18.089-14.27-28.458-19.483-61.069-32.79-104.4-29.077-159.87 3.4004-64.74 37.199-107.33 143.02-11.79 226.57 56.294 48.079 156.2 51.259 217.74-28.987 18.284 5.1562 40.665 3.3727 54.155 19.092 19.873 20.988 41.306 40.442 62.015 60.65 28.736 26.98 55.772 55.688 84.341 82.864 7.9155 7.2749 14.521 19.093 26.924 18.117 51.118 0.92 102.23-2.3412 153.35-2.7035 4.4874-0.5852 7.3583 3.1495 10.201 5.9647 24.332 25.865 46.658 53.542 71.882 78.572 24.186 22.266 2.7067 16.096 96.382 15.664 148.64-2.1461 510.9-0.2228 543.25-2.8151 25.234 27.66 249.62 252 256.2 262-1.3936 21.908 2.843 43.508 2.3412 65.416-25.199-0.2939-50.679 3.0403-75.704 0.5259-7.7916-38.834-42.08-68.089-83.208-68.089-42.327 0-77.408 30.987-83.819 71.511-70.986 3.7578-1105.3 1.7949-1105.7 1.7937-20.696-172.82-275.21-165.18-287.25 12.236-0.1114 49.696 30.241 95.406 71.13 121.83 69.246 42.789 155.51 12.643 194.52-44.261 10.48-15.497 16.417-33.418 20.904-51.396 59.868 1.1414 1011.9 0.5107 1109.8 0.2029 26.027 77.456 136.21 76.718 161.24-1.0063 26.618 0.2083 53.261 0.1062 79.878 0.0789-3.233 48.776-1.756 97.72-2.4805 146.58-95.127-0.8362-991.94-0.3066-1028.8-1.9512-4.0973-6.6614-6.968-13.992-11.483-20.374-31.555-46.363-103.39-57.235-143.93-16.57-26.4 26.487-32.558 68.23-15.503 101.22 24.922 58.56 129.35 83.282 175.43-23.719 166.4 0.0837 981.96 2.2854 1024.1 0.4182-0.6688 48.33-0.3623 96.688-0.0278 145.02-146.16 0.5295-1234.3 1.8396-1352.1-0.3066-3.9022-8.8074-7.4141-17.95-13.239-25.67-23.273-28.68-54.824-51.535-91.309-59.618-69.146-18.953-149.37 33.935-168.99 95.183-25.084 78.3 17.118 149.88 82.567 176.17 94.068 37.797 195.84-29.844 195.46-143.09 367.16-2.8987 1264.9 0.7246 1346.7-0.8918 1.1429 14.075-0.5573 28.123-0.4458 42.226 0 32.388 0.223 64.775-0.028 97.162-25.736-0.1848-51.446-0.103-77.155-0.1882-27.897-74.478-133.73-75.679-162.69-0.8831-4.4504 7.6104 47.712 2.2522-924.6-0.6011-9.7831 0.3066-14.466 11.344-21.406 16.974-0.2769 0.2798-226.46 223.2-231.62 229.78 13.713 7.4138 23.719 19.455 35.342 29.544 14.521-16.556 29.098-33.029 44.958-48.33 39.718-38.324 77.401-78.683 116.62-117.51 22.688-21.908 41.892-47.355 65.276-68.426 145.41-3.2222 807.69 0.6086 910.36 1.6226 5.6973 42.554 42.12 75.382 86.234 75.382 44.627 0 81.387-33.595 86.423-76.871 24.868-0.4702 49.757-0.4866 74.647-0.6907-0.2228 22.576-0.2787 45.153 0.028 67.757-29.182 21.768-53.821 48.86-79.519 74.502-23.858 26.2-51.006 49.166-74.669 75.561-30.882 34.06-64.468 65.555-97.301 97.719-43.252 2.7097-301.06-0.4441-301.52-0.446-36.433 32.12-25.585 21.214-199.7 196.28-7.2745 6.8843-11.678 19.733-23.775 18.2-35.816-1.115-73.527 15.804-91.198 48.024-3.4003 5.3516-4.8497 12.04-9.3929 16.612-159.68 0.9414-141.53-4.8567-156.28 7.219-42.003 37.85-80.216 79.63-121.36 118.37-7.609 6.4939-11.428 19.761-23.245 19.148-57.918 0.3904-115.84-0.0278-173.75 0.5295 3.7348-15.998 8.6124-32.081 7.609-48.665-0.6968-16.695-3.6791-33.224-3.4561-49.947 17.587-2.9541 36.373-6.7168 49.557-19.761 22.716-21.936 47.383-41.78 69.541-64.273 18.256-17.95 36.039-36.401 54.518-54.128 18.033-18.228 38.854-33.641 54.741-53.932 56.998-0.5298 114.02 0.5015 171.05-0.6689 0.0279-14.661-0.1672-29.294-0.3065-43.926-61.709 1.2263-123.36-1.0869-185.07-1.0869-21.071 24.639-46.937 44.512-69.736 67.45-33.92 34.924-71.241 66.252-105.91 100.4-12.208 11.065-23.05 24.388-38.129 31.691-11.372 5.0171-20.932-5.2678-28.458-12.292-46.002-48.991-130.13-62.363-185.27-20.597-19.566 15.441-41.39 29.99-53.459 52.567-18.535 31.133-21.183 69.708-12.793 104.44 8.8912 37.237 39.021 63.994 69.485 84.648 25.977 17.838 59.061 23.552 89.943 18.925 78.948-16.234 78.682-50.65 94.765-49.362 230.88 0.7295 219.68 2.176 225.54-3.9575 12.069-11.121 22.214-24.138 34.171-35.398 31.468-33.585 65.667-64.412 98.528-96.576 3.512-3.1494 7.3862-6.8845 12.542-6.104 42.867 1.0032 85.734 0.3064 128.63 0.1116 1.1985 38.408 33.391 72.913 71.826 75.756 28.875 3.2053 57.946-9.1697 78.544-29.071 13.908-12.236 20.57-29.962 25.392-47.327 45.459 0.5852 90.919-0.4182 136.35 0.9197-20.019 26.898-116.49 120.16-141.09 142.31-40.832 1.0591-81.805 0.6414-122.66-0.3623-7.0795 1.0591-8.6961-6.3267-11.4-11.065-18.781-38.253-79.824-43.398-112.35-17.643-18.424 14.633-33.419 34.478-39.913 57.305-6.2156 24.75 2.1739 50.337 15.525 71.241-1.0002 0.9221-378.84 372.42-386.84 381.23-0.8909-1.2368-1.7704-2.4854-2.6465-3.7368-15.303-29.765-46.296-50.141-82.068-50.141-49.946 0-90.592 39.7-92.172 89.262-87.287 0.467-41.51 12.764-79.631-21.53-18.749-16.868-55.632-27.372-88.154-13.237-24.902 10.823-43.687 34.687-48.361 61.433-9.529 54.536 39.293 103.42 93.701 93.703 36.371-6.498 63.336-38.587 72.063-73.168 24.164 0.5513 56.52-3.4097 60.148-2.7676 34.764 68.978 137.75 70.406 171.11-12.339 2.3413-5.0728 0.4182-11.567 3.9022-15.915 34.297-28.296 208.59-205.54 414.01-403.75 8.1667 5.3792 17.336 11.4 27.649 9.6157 51.122-7.021 92.486-50.408 98.11-91.783 14.744-0.0835 29.544 0.3345 44.289-0.8359 25.531-1.4216 51.368 1.4773 76.76-1.2546 71.929-64.765 382.74-370.91 434.14-435.53 38.581-52.093 194.61-199.36 256.59-271.17 25.281 38.674 32.771 50.846 115.92 44.372 9.5043 3.1775 18.089 9.7278 25.28 16.779-279.57 276.04-252.8 253.57-262.42 258.85-22.521-8.0273-47.076-12.821-70.767-7.0515-45.238 11.236-72.582 49.47-64.524 99.81-41.573 29.188-1311.7 1294.8-1325.2 1309.6-21.85-11.677-38.538-27.074-43.843-25.559-5.2679 4.4316-9.6438 9.811-14.326 14.856-37.683 41.25-79.463 78.46-118.43 118.48-30.241 29.377-58.03 61.206-88.159 90.695 28.708 26.088 56.051 53.654 85.456 79.018 11.093 9.2256 20.124 20.681 31.663 29.433 13.936-13.044 25.614-28.29 39.857-41.027 57.361-52.232 111.18-108.14 166.76-162.24 6.6615-6.8569 17.309-14.048 14.549-25.057-5.0728-13.128-21.127-14.884-31.44-22.437-6.3548-4.5713-16.416-9.9785-15.413-18.953 6.5778-12.124 17.587-21.016 26.896-30.91 0.2788-0.2637 1126.9-1124 1290.8-1279.6 17.727 10.006 36.847 19.873 57.862 18.591 46.546 1.5605 85.344-38.464 94.375-82 3.0381-11.372-1.3099-22.772-1.3378-34.171 11.455-18.312 28.931-31.69 43.536-47.354 59.172-59.758 118.15-119.79 179.97-176.82 2.5363 24.388 14.939 46.073 27.733 66.447 13.239 20.626 35.119 36.763 60.371 37.293-23.892 22.185 2.5786 0.4863-136.55 143.26-28.68 29.015-57.807 57.612-85.066 87.992-19.594 22.13-42.84 40.582-62.74 62.433-17.671 19.455-36.763 37.599-55.772 55.744-31.802 30.436-60.984 63.409-92.507 94.096-381.93 381.93-197.44 213.27-636.07 648.95-7.6724 7.9966-203.36 204.8-208.59 210.13-1.4494 64.078 0.418 128.27-0.9478 192.4 14.187 0.1392 28.402 0.0835 42.616-0.1392-0.0886-175.73-1.8096-173.26 3.5956-178.41 0.2524-0.2793 280.61-275.72 407.85-408.72 17.113-16.333 30.492-36.401 49.417-50.839 19.092-14.159 33.502-33.418 51.87-48.442-2.9265 98.138 0.3903 196.44-3.7906 294.52-0.2812 0.2827-191.45 187.81-220.38 214.22-6.8566 6.0762-15.162 10.981-19.929 19.092-1.9232 2.3135-3.038 6.7451-6.8843 6.3828-28.903-0.0557-56.859 15.246-74.335 37.934-32.46 46.262-16.4 113.51 39.885 140.42 92.329 38.864 183.71-89.148 86.376-165.39 103.26-107.32 231.22-224.66 245.69-242.68-7.4138-13.88-5.1562-29.795-5.3513-44.874-0.0038-0.2871 1.2393-256.11 5.9368-318.72 14.456-26.055 142.9-146.2 151.37-154.91 33.978-34.649 183.51-183.25 215.95-218.85 17.671-19.566 38.993-35.286 57.054-54.434 10.161-9.9973 236.46-245.86 253.38-262.25 16.946-17.616 35.258-35.119 45.097-57.918 27.287 0.167 54.574-0.0559 81.86 0.1948-0.2485 35.746 0.4604 42.736 0.4604 67.363-33.641 9.6743-58.262 40.656-58.262 77.409 0 36.946 24.88 68.06 58.794 77.559-0.5171 134.73-0.6855 1005.9 0.8193 1086.5-59.011-2.1602-55.436-4.1294-112.63 14.884-1.531-61.253-4.7273-51.214-0.2507-132.39 13.295-7.7485 27.148-15.079 38.073-26.144 33-31.607 29.572-88.549-0.613-120.83-10.118-11.093-23.413-18.591-37.21-24.082-4.6267-0.7246-5.8809-5.0449-5.3792-9.0586 0.5852-172.61 0.1116-345.25 0.1116-517.89 14.939-7.7764 29.461-17.364 39.495-31.161 65.624-90.393-37.485-183.26-117.99-125.51-25.781 18.493-44.119 53.646-42.542 85.639 0.0582 1.1807 0.2415 2.2783 0.5198 3.304-11.239 4.2388-107.32 104.43-237 227.58-5.7417 6.1602-16.054 10.592-14.605 20.57-1.3152 484.99 6.4966 464.42-6.3827 476.75-19.092 19.037-36.429 39.773-56.413 57.918-53.088 47.283-68.572 73.362-99.197 95.852-16.299 12.238-105.62-35.556-179.5 68.565-31.44 47.327-25.754 114.5 10.424 157.67 60.947 74.385 183.38 67.124 231.48-2.2295 35.514-50.931 38.104-124.77-3.066-172.92-7.4138-8.1108-15.58-15.441-22.493-23.942 16.779-19.817 36.54-36.875 54.88-55.214 35.983-35.565 71.102-72.133 109.68-104.86 4.2365-4.9053 2.2019-12.096 2.9265-17.921 3.8114-463.28-4.6721-468.03 6.5499-477.28 0.2858-0.269 98.415-94.63 118.68-109.01 0.0571 15.584 2.0211 622.16-1.5608 643.87-13.796 19.136-84.036 90.661-107.36 113.22-18.583 20.032-7.6322-22.961-11.204 267.07 13.741 0.8638 27.51 0.5854 41.279 0.4458 2.4567-226.22-4.3508-230.59 5.881-239.78 36.401-39.634 75.924-76.286 113.02-115.28 4.5391-3.7964 3.0172 39.721 1.2543-709.73 20.876-24.054 43.341-46.937 65.722-69.68 13.852 17.95 33.391 31.746 55.41 37.572 1.9789 110.74 0.474 458.75 2.871 521.93-14.298 5.8809-28.68 12.514-40.08 23.189-26.395 23.357-38.129 65.221-21.183 97.302 12.124 25.168 35.091 44.428 61.179 53.933 0.8083 53.291-0.0835 106.55 0.0278 159.85 0.0278 8.5845-5.881 15.581-9.2812 23.134-40.04 75.912-5.6307 186.4 96.409 204.69 50.393 10.034 108.78-2.6196 142.26-43.843 47.381-64.638 37.929-170.3-27.371-207.01-4.0415-1.728-2.397-6.8843-2.8149-10.118 0.1392-232.34-2.1177-962.48-0.7183-1095.2 34.644-9.0127 60.221-40.5 60.221-77.965 0-37.505-25.631-69.022-60.331-77.996-0.1255-22.775-0.2329-45.53-0.2588-68.308 44.289 0.0554 88.578 0.4736 132.87 0.7522-0.3623 72.523-2.6755 1422.7-2.0068 1566.8 14.521 0.2231 29.015 0.084 43.536-0.5015-0.0967-91.796-1.7593-1461.7 0.5295-1566 52.511-1.8118 105.05 0.9475 157.59 0.613 0.8362 82.445 1.5886 1413.6 2.0347 1566.1 13.964 0.0835 27.928 0.0278 41.892-0.251-0.8362-149.62-1.7561-1410.2-2.3413-1566.2 43.118 0.1116 86.264-0.446 129.35 1.3936 1.2825 17.476-1.7834 35.258 2.063 52.539 0.3079 1.801 0.4788 4.0916 0.5576 6.5361-36.074 8.907-62.828 41.469-62.828 80.294 0 38.565 26.392 70.964 62.099 80.126 1.0774 57.227 1.5369 959.05-1.0833 1104.6-39.646 21.577-67.444 65.017-62.294 134.87 20.545 168.16 270.03 168.78 281.81-16.806 1.4214-47.048-24.834-93.037-64.998-117.2-32.666-22.075-74.251-23.385-112.02-17.727-0.446-72.133-0.207-1011.3 1.2554-1088.2 34.97-9.6565 60.658-41.678 60.658-79.72 0-37.257-24.636-68.753-58.503-79.107-0.083-20.374 0.144-40.736 0.1016-61.097 24.444 0.5015 48.999-1.0593 73.387 0.7244 9.0308 7.6094 14.8 18.256 22.883 26.869 33.585 40.554 72.161 76.509 108.17 114.86 72.116 74.37 192.09 204.09 299.23 311.14 37.795 39.327 78.627 75.672 115 116.37 4.2698 4.6653 168.68 163.93 179.05 182.9 3.4561 119.77 0.8921 239.73 3.2332 359.49 7.6929 8.9468 18.173 15.163 26.005 24.138 33.893 34.84 69.374 68.091 103.15 103.07 37.182 38.407 74.53 76.648 112.27 114.5-11.953 16.376-28.169 29.183-31.858 80.356-0.0557 26.841 11.149 54.406 32.192 71.604 48.908 39.969 124.85 12.619 140.81-47.478 13.922-52.398-20.587-111.32-91.704-112.65 1.5793 0.0298-10.351-14.579-11.178-15.386-0.2808-0.2744-235.13-231.78-235.13-232.06-3.9023-15.832-1.6724-32.416-2.3691-48.525-0.2463-237.96-1.0586-222.44 0.5852-246.14 5.1887 3.9092 495.59 497.11 520.34 527.26-3.707 22.242-2.0903 44.846-2.3135 67.283 0.2788 31.244-0.6411 62.517 0.3066 93.79 12.933 0.3901 25.865 0.5571 38.854 0.6133 0.4185-57.556-1.5049-115.17 1.0591-172.64 1.3936-13.184-10.591-20.988-18.339-29.545-12.062-13.107-1032.2-1053.2-1033.3-1054.3-24.388-24.026-46.407-50.282-70.739-74.335-29.154-32.917-61.346-62.907-91.281-95.1-19.483-20.375-37.07-42.477-57.166-62.266 7.219-4.4041 14.995-8.0271 21.628-13.379 11.567-10.87 20.877-23.775 31.691-35.342 7.1074-7.4695 10.118-17.559 16.11-25.754 6.2434-8.9749 9.4209-19.539 13.211-29.656 6.7173 4.7102 13.016 10.09 18.814 15.998 167.72 170.29 170.23 168.04 200.99 202.21-0.2568 2.0239-6.9609 15.273-6.9609 36.022 0 86.166 106.32 126.64 163.9 63.436 50.123 60.928 1259.6 1246.6 1309.8 1307.2-18.033 15.915-34.924 33.028-52.874 49.027 22.661 19.86 134.53 126.38 231.64 226.43 22.231-19.639-1.0708-6.4614 118.62-112.91-10.145-16.054-25.865-27.342-38.212-41.501zm-403.32-1354.7c29.137-52.946 96.558-58.776 136.46-27.873 30.56 23.669 43.409 67.773 30.342 104.15-13.067 36.378-51.042 62.227-89.678 61.042-65.314-2.0042-112.55-72.952-77.124-137.32zm-506.65-246.68c-0.2263 0 13.771 18.547 15.143 19.993 28.472 30.005 28.443 30.973 33.514 32.321 0.9272 0.2466 158.66-0.3235 164.54-1.0579 7.8042-0.9758 11.874 6.8564 16.612 11.678 25.196 30.464 56.023 55.466 82.864 84.397 23.301 25.057 48.916 47.773 74.446 70.517 17.03 15.218 36.763 30.464 60.873 30.074-8.7861 62.671-5.0698 57.111 1.9512 95.183-57.612 1.3379-115.22 0.9756-172.84 1.0593-6.4941 1.282-8.6958-5.9927-12.486-9.5603-15.999-17.42-33.558-33.335-50.03-50.253-31.154-30.266-73.573-85.376-90.78-83.978-46.465-0.4275-92.93-0.4971-139.37 0.3293-9.5667-41.69-46.869-72.796-91.462-72.796-45.852 0-84.002 32.884-92.21 76.351-34.802 0.9253-169.15 1.2888-185.51-0.4001-9.8948-7.6648-16.25-19.136-25.308-27.816-27.262-26.125-161.61-162.26-173.73-176.68 194.6 1.2262 389.21 0.3903 583.78 0.642zm504.26-602.09c13.267-26.646 40.191-45.348 69.234-50.839 43.062-7.2468 90.027 20.96 102.23 63.298 15.444 57.762-17.837 105.16-58.643 114.86-73.721 17.531-145.35-46.995-112.83-127.32zm-4.9102-386.83c8.9194-41.564 43.698-69.478 80.043-74.348 65.391-8.7612 118.19 51.988 100.62 113.85-9.9302 34.957-42.888 61.682-78.998 65.763-48.916 5.5291-117.57-31.113-101.66-105.26zm-3.8979-713.75c16.324-54.664 86.089-77.225 133.48-52.567 28.407 14.78 46.352 45.041 50.226 76.118 4.627 43.23-29.349 85.038-71.464 92.814-84.54 13.256-130.82-54.136-112.24-116.37zm-894.14 114.36c3.6294-4.6271-10.63-3.9348 208.4-3.1774 6.8008 23.774 23.106 46.63 47.327 54.713 46.717 15.036 96.848-3.6699 122.14-58.086 41.725 0.2791 83.449 0.1674 125.17-0.1112 27.622-0.7722 24.258-0.1124 38.77-14.605 132.38-132.21 113.77-124.47 139.47-125.4 56.604-2.0493 113.27 1.3936 169.91 1.6167-19.12 61.224-8.4878 84.038-2.8433 106.11-13.741 0.1392-28.49-3.0765-41.167 3.8459-31.086 16.976-44.277 32.733-163.55 151.82-7.1909 6.9401-15.441 14.633-26.199 13.936-58.56 1.0874-117.15 0.6134-175.71 1.2266-3.679 7.5814-6.6057 15.58-10.842 22.883-14.661 3.0376-29.978 0.9949-44.874 1.4215-82.665 2.3674-165.39 1.4215-248.06-0.1674-5.6023-0.2511-11.093-1.3657-16.528-2.3136-65.542 58.54-85.055 92.674-103.29 91.783-84.254-4.1146-168.71 0.2229-253.05-1.4493 13.272-24.673 200.45-209.41 234.93-244.05zm-239.45-1177.8c-15.91-143.39 154.93-139.16 179.27-50.058 34.367 128.71-150.82 162.88-179.27 50.058zm-2971.1 1150.1c-13.27 15.867-33.586 23.078-52.957 27.732-40.259 9.9906-88.242-12.859-100-37.293-13.211-27.983-18.507-62.628-3.2331-90.946 27.052-59.763 102.27-64.992 147.19-27.649 16.929 14.074 26.729 35.314 30.604 56.748 3.0937 25.392-5.1276 51.712-21.601 71.409zm539.99 259.63c-7.0515-15.079-14.493-30.186-25.754-42.617 73.833 0.028 147.69-0.5573 221.56-0.4735 10.814 15.998 25.614 28.68 38.129 43.313-77.986-0.0836-155.97 2.2297-233.93-0.2231zm303.3-1.756c-85.273-82.665-84.665-92.16-100.73-91.253-90.835 0.2229-181.7 1.0312-272.53 0.8639-6.4384-3.8181-11.818-10.758-20.096-9.6715-153.15 0.7056-152.06 7.8613-164.03-3.9576-23.387-23.095-48.206-44.633-71.687-67.618-15.122-14.803-26.98-32.415-41.92-47.299-64.367-63.547-34.691-42.888-111.91-48.916 8.6237-27.927 16.534-38.686-0.5852-107.7 60.287-0.5576 120.57-0.2507 180.86-0.7247 13.762-0.9519 76.204 79.544 126.62 129.58 6.0761 6.7173 15.684 5.6117 23.831 5.8252 49.79 1.3051 99.559 1.8396 149.37 1.8396 4.1251 26.813 23.357 49.055 46.045 62.657 29.071 15.023 64.957 6.4486 91.086-11.205 15.342-10.366 23.19-27.482 31.858-43.063 83.692-0.2794 178.97-3.542 193.35 0.3066 28.295 27.483 199.68 197.62 221.3 230.7-69.503 1.4829-266.38 0.9924-280.84-0.3625zm-856.45 450.86c-47.816 31.661-101.8 25.753-133.31-5.4631-50.622-52.912-12.077-139.27 51.062-148.28 63.9-9.6431 105.52 36.587 110.68 81.47 3.0627 26.64-5.1007 56.998-28.43 72.272zm-6.1588 414.76c-22.477 18.08-48.358 21.052-76.99 17.792-12.737-1.45-21.168-3.4597-32.067-11.304-56.454-40.628-49.541-125.17 9.3616-156.86 56.808-30.56 127.14 6.9873 133.12 71.41 2.7503 29.644-10.226 60.298-33.425 78.958zm30.268 821.95c-19.225 44.592-78.158 66.342-123.56 47.522-20.273-8.4043-34.088-26.729-43.397-45.766-19.678-39.327-5.2121-93.371 33.112-115.84 33.16-19.5 79.204-16.221 109.98 6.4663 31.942 24.304 39.421 71.519 23.859 107.61zm1086.4-332.37c-23.451 26.406-186 191.62-200.23 203.72-61.764 4.6824-123.95 0.5852-185.88-0.0278-11.238-28.338-37.894-31.905-30.799-43.648 6.8418-11.324 16.835-20.319 26.311-29.405 59.256-54.072 113.61-113.41 172.86-167.34 80.773-0.1675 161.6 0.78 242.35 1.7837-1.756 15.218-15.186 24.311-24.611 34.924zm56.998 1392.5c6.2531 103.3-111.86 125.44-161.38 70.126-53.645-59.928-8.9709-189.91 120.99-137.63 26.172 11.093 40.414 40.052 40.387 67.506zm1149.9-4161.9c-12.356-56.944 32.604-104.4 81.332-107.94 37.67-2.7382 75.801 20.943 90.046 55.923 14.245 34.98 3.5056 78.563-25.36 102.92-49.301 41.6-130.68 19.761-146.02-50.9zm-561.78 69.303c-27.884 3.628-58.328-3.864-76.836-25.49-47.963-56.044-15.963-136.83 49.392-150.3 35.704-7.3619 75.213 9.4558 94.42 40.441 31.862 51.401 3.6147 126.17-66.977 135.35zm68.656 4143.9c-12.013 23.217-34.45 41-60.12 46.407-21.434 6.9399-44.595 1.5884-64.44-7.665-23.97-11.706-39.132-36.122-44.735-61.542-6.1875-20.653-2.5085-43.118 6.522-62.294 18.657-38.003 77.454-61.658 131.22-33.363 39.371 20.8 51.594 79.514 31.551 118.46zm560.4-127.43c42.226-12.598 91.755 12.654 105.27 54.824 8.3616 27.677 4.0137 58.684-10.564 83.784-21.061 36.263-78.268 47.522-114.22 28.764-39.94-19.817-60.538-70.488-47.104-112.71 10.062-28.903 37.014-49.111 66.614-54.657zm148.34-1508.5c3.261 14.605 17.364 22.465 28.458 30.798-2.8987 12.766-12.347 22.437-17.894 34.004-13.844 20.565-19.429 48.978-54.573 52.623-0.2788-47.634-0.3345-95.295-1.0312-142.93-14.243-0.3623-28.458-0.2786-42.672-0.2231-0.0559 47.41-1.3101 94.765-2.0068 142.15-8.5845 0.3623-17.141 0.5017-25.698 0.6133-2.0068-47.41-0.9478-94.877-1.4492-142.31-11.957-0.167-23.859-0.2229-35.788-0.2507-0.4739 47.271-1.5051 94.542-1.1147 141.81-8.0552 0.7805-16.138 0.9194-24.165 0.8916 0.0557-47.494-0.3345-94.988-0.3066-142.48-12.737-0.0281-25.447 0-38.157 0-1.7559 47.578-1.0315 95.211-1.2544 142.84-9.6995 0.1396-19.371 0.2234-29.015 0.2512 0.2231-47.662 0.8643-95.379-0.0278-143.04-12.096 0.0837-24.193 0.0281-36.262-0.2507-0.7527 47.355-2.6479 94.737-2.0068 142.09-10.062 0.446-20.124 0.6411-30.158 0.5574 0.1672-47.076 0.9197-94.179 1.1707-141.26-11.957-0.2231-23.942-0.3064-35.872-0.1116-0.8918 47.02-1.4214 94.068-3.0381 141.09-6.9121-0.864-15.33 2.2297-21.21-1.6445-0.6133-46.435-0.4739-92.898-1.0312-139.33-11.985-0.1116-23.998-0.0835-35.955 0.0837-2.0625 46.992-1.1147 94.068-1.728 141.12-9.6995 0.1111-19.399 0.167-29.071 0.3345 0.1672-47.048 0.9756-94.096 1.0312-141.12-12.403-0.0837-24.75 0.613-37.126 0.613 0.0559 46.546-1.6165 93.065-1.3098 139.61-9.811 0.3064-19.594 0.2231-29.377-0.0281-0.0278-46.518 0.2229-93.037 0.2507-139.56-12.96 0.1392-25.921 0.0837-38.854 0.0837 0.2788 46.769-1.3657 93.51-1.5327 140.28-7.0796-0.1118-14.159-0.0559-21.238 0.167 0-47.104 0.4458-94.208-0.2231-141.28-12.375-0.3066-24.778-0.3623-37.126-0.2229-0.3064 47.243-0.3899 94.486-0.418 141.76l-26.952 0.0559c1.115-47.355 0.3904-94.682-0.8916-142.01-12.152 0.0559-24.305-0.0557-36.429 0-0.8918 47.383-0.5852 94.793-1.1707 142.18-9.5044 0.1116-19.008 0.0837-28.457 0.0278-0.6689-47.327-0.2788-94.653-0.5017-141.98-12.069-0.3069-24.109-0.3069-36.122-0.1116 0.0278 47.271-0.6689 94.542-0.3901 141.84-8.1946 0-16.389 0.0281-24.555 0.1113l-0.9197-142.59c-12.738-0.3623-25.447-0.5298-38.157-0.6968-0.8086 47.271-1.2266 94.598-0.7249 141.87-9.0583 0.864-18.173 0.7803-27.231 0.4739 0.3064-47.048-0.864-94.096-1.0312-141.14-13.267-0.1951-26.534-0.2229-39.802-0.1392-0.7524 47.577-3.2888 95.155-2.0903 142.76-18.479-2.8152-31.941-16.695-42.56-30.938-14.215-19.65-20.319-44.289-21.712-68.148 11.929-14.493 24.388-31.161 23.19-51.089 1.8954-18.033-9.2535-35.23-24.109-44.512-12.487-8.0828-27.956-4.2644-41.864-4.8218-20.486-0.6692-40.916 0.9294-61.346 1.0588-16.309 0.1033-30.046-14.633-31.969-29.851 2.6477-9.0305 5.7417-23.775 17.922-22.855 36.039-0.8921 72.105-1.0312 108.17-1.5051-0.0836-12.877-0.0558-25.754-0.0278-38.603-43.202-0.1675-86.376 0-129.55-0.3623 0.1672-7.9993 0.028-15.971-0.223-23.914 43.062 0.1113 86.153 0.2507 129.22-0.4739 0.1672-12.626 0.3065-25.252 0.3623-37.878-42.895-1.3655-85.818-0.864-128.71-1.1147 0.0559-7.7766 0-15.553-0.1393-23.301 42.644-0.1953 85.288 0.3623 127.96-0.0837 0.3903-11.121 0.5016-22.214 0.1393-33.307-42.784 0-85.567 0.1672-128.32-0.9756 0.223-9.9224 0.223-19.845 0.1393-29.74 42.617 0.3623 85.205-0.0557 127.82-0.8918 0.3901-10.842 0.4738-21.712 0.3901-32.555-42.477-1.0869-84.982-2.1741-127.46-1.0869-0.251-7.4419-0.3903-14.884-0.4459-22.27 42.17-0.0278 84.313-0.4739 126.48-0.7805 1.1428-13.964 0.9756-28.012 0.446-42.003-42.477-0.2507-84.982-0.1951-127.49-0.6968 0.2229-7.5256 0.2229-15.023 0.0835-22.521 42.812-0.6689 85.679-0.5574 128.49-2.397 0.0277-11.511 0.2507-22.994 0.1951-34.478-42.84-0.1392-85.679 0.1951-128.49 0.4182 0.0558-10.034-0.028-20.04-0.2787-30.046 42.672 0.446 85.344-1.0593 128.02-1.4495-0.1116-10.87 0.0558-21.74 0.3903-32.555-78.835-2.1135-123.95 0.9612-127.79-2.8147-0.2787-6.7173 0.0836-13.435 0.2788-20.096 41.92-0.864 83.895-0.864 125.81-2.1462 0.3903-12.459 1.0591-24.918 0.9478-37.348-42.254-0.1116-84.508-0.1116-126.73 0.4736-0.1393-7.386-0.1949-14.772-0.1393-22.13 42.338-0.2786 84.675-0.7527 127.01-1.4773 0.1672-11.567 0.1951-23.106 0.1393-34.617-42.533-0.1672-85.093 0-127.57-1.5889 0.1951-9.5603 0.1672-19.12 0.2228-28.68 42.226-0.2231 84.48-1.1707 126.71-1.3657 0.7526-11.372 0.7805-22.744 0.3624-34.088-42.226 0.5854-84.425 0.3623-126.62 0.5017l-0.0278-24.667c41.947 0.0837 83.895-0.4458 125.84-1.0588 0.6411-13.797 1.2542-27.649 0.0836-41.418-42.143-0.0559-84.341-0.7246-126.48 0.6968-0.6132-8.5286-0.5017-17.057-0.418-25.586 42.533 0.1396 85.065 0 127.57-1.0591 0.1952-12.961 0.3066-25.893 0.2789-38.826-42.198 0.446-84.425-0.4736-126.62-0.167 0.9476-9.4209-0.1951-19.483 3.3446-28.346 7.4419-9.5879 17.86-18.902 30.826-18.842 24.142 0.1123 48.274 0.2231 72.412 0 11.511-1.4495 24.332-3.3723 32.638-12.375 13.295-13.713 16.584-33.67 16.807-52.009-3.7135-29.709-34.347-41.272-3.7628-97.106 12.83-23.214 15.158-26.671 44.79-39.69 1.4773 47.661 2.7593 95.35 1.7839 143.07 14.661 0.5576 29.349 0.1392 44.038-0.1671-0.4458-49.194-1.0312-98.444 1.6445-147.58 8.7239-0.1949 17.448 0 26.2 0.2786 2.5364 48.944-0.9197 97.943-0.5295 146.89 12.905 0.2229 25.865 0.3623 38.77-0.3345-0.2786-48.219 0.0835-96.438 1.728-144.6 7.5813 0 15.19-0.0558 22.799-0.0278 0.251 48.079 0.251 96.159 0.4739 144.27 12.626-0.0558 25.28 0 37.934-0.0558 0.8081-48.665 0.1951-97.357 1.8953-146.02 9.1699-0.3345 18.396-0.3345 27.593 0.3065 0.2229 48.637 0 97.246-0.418 145.88 12.598 0.6132 25.252 0.641 37.878 0.2233 0.3069-48.498-0.0278-97.023 0.1116-145.52 8.8076-0.2791 17.615-0.3069 26.451-0.2233 0.3901 48.386 0 96.8 0.5574 145.19 12.459 0.9473 24.973 1.0309 37.488 0.4178 0.4182-47.968-0.0276-95.963 0.3347-143.93 7.1353 0.028 14.27 0 21.434-0.0836 1.8953 47.744 1.2263 95.573 1.8115 143.37 12.961 0.3345 25.977 0.3903 38.993 0.3065 0.1951-47.996-0.1394-95.992-0.2507-143.99 9.8386-0.0278 19.678-0.0836 29.544-0.167 0.1672 47.94 0.3904 95.908 0.4182 143.88 12.319 0.3903 24.667 0.3903 37.014 0.1675 0.1672-47.41-0.6133-94.821-0.0837-142.23 9.6995 0.0558 19.399 0.1949 29.099 0.5852-0.5295 47.243-0.5017 94.458-0.446 141.7 13.406 0.0278 26.813 0.2504 40.219 0.0554-0.1113-45.571-0.2786-91.169 0.3069-136.74 7.7205-1.5331 15.413-3.4003 23.134-5.1008 1.2273 14.104-0.8582 105.76 0.3345 141.65 12.877 0.2229 25.782 0.3065 38.714 0.3621-0.864-47.717-0.9478-95.434-0.446-143.15 10.173-0.028 20.319 0.1116 30.52 0.0558-0.4458 47.633-0.7524 95.294-1.533 142.96 13.1-0.1949 26.228-0.1392 39.383-0.1392 0-46.993 0.2788-93.985 0.5574-140.95 7.8323-4.5153 19.065-0.7805 28.206-1.9509-0.4736 47.522-0.8081 95.072-1.8672 142.57 13.322 0.3348 26.673 0.3348 40.024 0.3627 0.4736-47.355 0.3904-94.709 1.0872-142.06 7.9434-0.0834 15.915-0.1392 23.914-0.2787-0.7527 47.773-1.4773 95.574-1.3657 143.37 12.124 0.1953 24.248 0.1395 36.401-0.0278 1.2544-47.772 1.9512-95.601 1.0312-143.4 9.3093-0.0278 18.646 0.1116 28.012 0.3069 0.2507 47.41-0.2229 94.793 0.0278 142.2 14.689 1.2823 29.461 0.9755 44.205 0.8917 0.1116-48.497 0.3345-96.995 0.7249-145.46 24.221 9.2258 47.327 26.618 55.744 52.037 2.8987 9.2537 5.7417 18.953 5.1562 28.792-4.989 18.368-15.775 34.673-21.043 52.957 0.2786 14.326-2.834 30.153 5.4907 43.006 9.8723 15.244 25.782 25.726 42.198 32.638 12.682 5.7415 26.395 0.3345 39.606 2.1738 19.594 2.2856 39.439 3.1777 58.922 5.937 8.8911 7.2747 12.152 19.678 14.131 30.632-41.836 5.1562-84.313 2.564-126.46 3.7346-0.7246 13.769-0.7246 27.566-0.78 41.39 42.644-1.7556 85.316-1.3657 127.99-3.0378-0.7527 8.3894-0.9753 16.779-1.5327 25.196-42.7 0.4185-85.4 0.5298-128.1 0.6968-0.8359 13.964-0.6968 27.984-0.6968 42.003 43.118 0.0837 86.264-1.0032 129.38-0.8362-0.2229 7.3586-0.6689 14.717-0.8918 22.103-42.56 1.3655-85.205 0.7246-127.71 3.0657-0.3623 12.18-0.5015 24.36-0.4182 36.569 43.091 0.0554 86.208-0.8083 129.33-0.6414 0.1672 9.5044-0.251 19.008-1.4495 28.458-42.895 0.7524-85.79 1.9231-128.66 3.3445-0.6135 11.483-0.6414 22.967-0.8086 34.45 43.034 0.0278 86.097-0.9753 129.1-0.1113 0.0278 7.2466 0.1116 14.493 0.251 21.768-42.923 0.8916-85.818 0.1113-128.71 1.7559-0.0559 12.626-0.0278 25.252 0 37.906 43.09 2.4526 86.208-1.0312 129.33-0.1672-0.1672 7.3025-0.2507 14.661-0.2786 22.019-42.895 0.3347-85.79 0.8643-128.69 1.6724-0.1116 11.567-0.2229 23.134-0.4182 34.701 43.035 2.0625 86.153 0.7246 129.22 1.0591-0.1392 8.3337-0.1951 16.723-0.1951 25.112-43.035 2.0627-86.153 1.366-129.21 1.979-0.446 12.403-0.3904 24.834-0.1116 37.265 43.202 0.0281 86.403-0.0557 129.61-0.3064-0.251 7.0515-0.3345 14.131-0.3345 21.238-42.561 0.3623-85.066 1.3376-127.6 1.3936-0.613 13.434-0.8916 26.897-0.4456 40.359 42.783-0.1113 85.623 0.1396 128.43-0.2786-0.1394 7.4138-0.1116 14.856-0.1675 22.325-42.449 0.6968-84.898-0.3345-127.35 0.8083-0.9197 11.874-0.8921 23.803-0.6689 35.732 42.421 0.5576 84.898-0.2229 127.32 0.7249-0.0278 9.783 0.0559 19.566 0.0281 29.377-42.059 1.1426-84.118 0.0278-126.15 1.0867-0.1948 11.929-0.613 23.887-0.8638 35.844 42.17 1.4216 84.369 0.9478 126.57 0.8359-0.251 7.0518-0.4739 14.131-0.7527 21.238-42.17-0.0278-84.313-0.5852-126.46-0.1948-0.5576 12.71-0.5298 25.475-0.4182 38.24 42.895 0.9753 85.79-0.1396 128.71-0.4182-0.6689 7.6089-1.2261 15.218-1.7002 22.855-41.78 1.7839-83.644 0.1392-125.45 1.1426 0.446 14.27-0.5015 28.541-1.2542 42.784 41.39 0.0833 82.808 0.0276 124.2-0.2791-2.4529 15.998-0.5857 32.527-5.3796 48.163-28.959 5.24-58.42 0.4182-87.574 0.6409-24.444 2.2859-50.198 15.023-59.619 38.993-4.5712 14.215-2.9826 29.795 0.3619 44.15z"/> </svg>