<?xml version="1.0" encoding="UTF-8"?>
<svg enable-background="new 0 0 300 300" version="1.1" viewBox="0 0 300 300" xmlns="http://www.w3.org/2000/svg">
 <path d="m52.195 121.62s0.35 21.709 1.751 23.81 68.979 73.531 82.635 70.38 15.056-3.501 13.656-3.151 85.436-18.558 85.436-18.558 1.751-1.401 1.751-2.801 1.751-7.003 1.751-7.003 6.303-1.05 7.003-2.101c0.7-1.05 4.902-6.653 1.401-14.356s-54.973-64.427-66.528-72.831l-10.504-1.05-11.557-10.155s-43.068 4.202-47.62 4.552c-3.852-3.501-19.258-14.706-30.813-11.205s-10.504 7.003-11.205 10.154l0.35 14.706s-15.932 2.451-17.858 6.653c-1.925 4.202-3.5 15.407 0.351 12.956z" fill="none" stroke="#000" stroke-miterlimit="10" stroke-width="2"/>
 <path d="m52.195 121.62s4.552-3.151 8.404-7.003c12.255 12.605 73.181 79.834 73.181 79.834s-1.05 9.104 4.202 9.104 101.19-19.258 101.19-19.258" fill="none" stroke="#000" stroke-miterlimit="10" stroke-width="1.2"/>
 <path d="m70.665 104.29s-5.252-0.263-4.99 0.525 0.263 0.788 0.263 0.788l69.854 77.995s4.202 3.414 7.878 3.414c5.121-0.263 6.828 1.838 9.585 1.05" fill="none" stroke="#020202" stroke-miterlimit="10"/>
 <path d="m69.703 102.01s3.064 6.478 8.316 11.467c5.252 4.99 12.08 8.141 15.757 6.828 3.939 2.626 25.998 15.494 37.028 38.866 0 0 10.242 29.675 21.271 28.625 0 0 8.141 2.101 14.444-3.414s3.677-15.319 3.677-15.319-1.393-7.045-5.602-14.881c-3.931-10.334-22.364-34.948-36.765-50.946-8.046-8.938-16.807-15.231-16.807-15.231" fill="none" stroke="#000" stroke-miterlimit="10" stroke-width="1.5"/>
 <path d="m69.352 90.109s9.454 7.703 23.11 20.659 35.715 32.914 41.668 44.119c5.952 11.205 12.78 29.412 25.561 28.012 0 0 5.427 0.175 9.454-4.727 0 0 1.05-1.05 1.751-5.252" fill="none" stroke="#020202" stroke-miterlimit="10" stroke-width=".75"/>
 <path d="m143.67 121.8s32.826-7.003 42.018-5.427c-8.404-12.868-15.144-22.409-15.144-22.409" fill="none" stroke="#020202" stroke-miterlimit="10" stroke-width="1.2"/>
 <path d="m118.46 93.786s27.837-3.677 40.442-4.202c8.666 7.353 19.433 20.746 20.746 26.524" fill="none" stroke="#020202" stroke-miterlimit="10"/>
 <polyline points="124.5 99.826 157.59 95.624 168.36 108.76 136.93 112.96" fill="none" stroke="#020202" stroke-miterlimit="10" stroke-width=".75"/>
 <path d="m169.14 180.45s61.276-6.303 72.48-12.955" fill="none" stroke="#020202" stroke-miterlimit="10"/>
 <g fill="none" stroke="#020202" stroke-miterlimit="10" stroke-width=".75">
  <path d="m175.58 162.72s-2.626 1.05-0.788 4.464 2.626 5.384 4.858 5.384 12.868-1.838 13.656-3.414c2.363-1.576-1.182-8.272-3.151-8.535-3.282-0.788-14.575 2.101-14.575 2.101z"/>
  <path d="m175.97 164.17s1.488 6.215 4.464 6.215 5.252-0.788 5.252-0.788"/>
 </g>
 <g fill="none" stroke="#020202" stroke-miterlimit="10" stroke-width=".75">
  <path d="m201.84 156.94s-2.626 1.05-0.788 4.464 2.626 5.383 4.858 5.383 12.868-1.838 13.656-3.414c2.363-1.576-1.182-8.272-3.151-8.535-3.282-0.787-14.575 2.102-14.575 2.102z"/>
  <path d="m202.23 158.39s1.488 6.215 4.464 6.215 5.252-0.788 5.252-0.788"/>
 </g>
 <g fill="none" stroke="#020202" stroke-miterlimit="10" stroke-width=".75">
  <path d="m165.07 148.02s-2.626 1.05-0.788 4.464 2.626 5.384 4.858 5.384 12.868-1.838 13.656-3.414c2.363-1.576-1.182-8.272-3.151-8.535-3.283-0.788-14.575 2.101-14.575 2.101z"/>
  <path d="m165.47 149.46s1.488 6.215 4.464 6.215 5.252-0.788 5.252-0.788"/>
 </g>
 <g fill="none" stroke="#020202" stroke-miterlimit="10" stroke-width=".75">
  <path d="m189.76 141.71s-2.626 1.05-0.788 4.464 2.626 5.384 4.858 5.384 12.868-1.838 13.656-3.414c2.363-1.576-1.182-8.272-3.151-8.535-3.283-0.787-14.575 2.101-14.575 2.101z"/>
  <path d="m190.15 143.16s1.488 6.215 4.464 6.215 5.252-0.788 5.252-0.788"/>
 </g>
 <g fill="none" stroke="#020202" stroke-miterlimit="10" stroke-width=".75">
  <path d="m176.1 129.63s-2.626 1.05-0.788 4.464 2.626 5.384 4.858 5.384 12.868-1.838 13.656-3.414c2.363-1.576-1.182-8.272-3.151-8.535-3.283-0.787-14.575 2.101-14.575 2.101z"/>
  <path d="m176.5 131.08s1.488 6.215 4.464 6.215 5.252-0.788 5.252-0.788"/>
 </g>
 <g fill="none" stroke="#020202" stroke-miterlimit="10" stroke-width=".75">
  <path d="m151.17 124.04s-1.409 0.563-0.423 2.395c0.986 1.831 1.409 2.888 2.606 2.888s6.903-0.986 7.325-1.831c1.268-0.845-0.634-4.437-1.69-4.578-1.761-0.423-7.818 1.126-7.818 1.126z"/>
  <path d="m151.38 124.82s0.798 3.334 2.395 3.334 2.817-0.423 2.817-0.423"/>
 </g>
 <g fill="none" stroke="#020202" stroke-miterlimit="10" stroke-width=".75">
  <path d="m154.57 133.83s-1.313 0.328-1.247 1.51c1.838 3.414 4.661 6.434 5.843 8.272 2.232 0 12.343-1.773 13.131-3.348 2.363-1.576-1.182-8.272-3.151-8.535-3.283-0.788-14.576 2.101-14.576 2.101z"/>
  <path d="m154.96 135.28s1.488 6.215 4.464 6.215 5.252-0.788 5.252-0.788"/>
 </g>
 <g fill="none" stroke="#020202" stroke-miterlimit="10" stroke-width=".75">
  <path d="m172.71 120.37s-1.409 0.563-0.423 2.395c0.986 1.831 1.409 2.888 2.606 2.888s6.903-0.986 7.325-1.831c1.268-0.845-0.634-4.437-1.69-4.578-1.761-0.424-7.818 1.126-7.818 1.126z"/>
  <path d="m172.92 121.14s0.798 3.334 2.395 3.334 2.817-0.423 2.817-0.423"/>
 </g>
 <g fill="none" stroke="#020202" stroke-miterlimit="10" stroke-width=".75">
  <path d="m189.65 116.52s-1.529 0.611-0.459 2.599 1.529 3.134 2.828 3.134 7.491-1.07 7.949-1.987c1.376-0.917-0.688-4.815-1.834-4.968-1.91-0.459-8.484 1.222-8.484 1.222z"/>
  <path d="m189.88 117.36s0.866 3.618 2.599 3.618 3.057-0.459 3.057-0.459"/>
 </g>
 <g fill="none" stroke="#020202" stroke-miterlimit="10" stroke-width=".75">
  <path d="m198.05 126.5s-1.529 0.611-0.459 2.599c1.07 1.987 1.529 3.134 2.828 3.134s7.491-1.07 7.949-1.987c1.376-0.917-0.688-4.815-1.834-4.968-1.911-0.46-8.484 1.222-8.484 1.222z"/>
  <path d="m198.28 127.34s0.866 3.618 2.599 3.618 3.057-0.459 3.057-0.459"/>
 </g>
 <g fill="none" stroke="#020202" stroke-miterlimit="10" stroke-width=".75">
  <path d="m210.66 139.1s-1.529 0.611-0.459 2.599c1.07 1.987 1.529 3.134 2.828 3.134s7.491-1.07 7.949-1.987c1.376-0.917-0.688-4.815-1.834-4.968-1.91-0.46-8.484 1.222-8.484 1.222z"/>
  <path d="m210.89 139.94s0.866 3.618 2.599 3.618 3.057-0.459 3.057-0.459"/>
 </g>
 <g fill="none" stroke="#020202" stroke-miterlimit="10" stroke-width=".75">
  <path d="m224.31 154.86s-1.529 0.611-0.459 2.599c1.07 1.987 1.529 3.134 2.828 3.134s7.491-1.07 7.949-1.987c1.376-0.917-0.688-4.815-1.834-4.968-1.911-0.459-8.484 1.222-8.484 1.222z"/>
  <path d="m224.54 155.7s0.866 3.618 2.599 3.618 3.057-0.459 3.057-0.459"/>
 </g>
 <path d="m87.473 179.57s-1.138 0.438-0.35 3.501 4.009 9.351 11.205 10.767c0.808 0.159 3.589 0.263 4.464-0.088" fill="none" stroke="#000" stroke-miterlimit="10" stroke-width="2"/>
 <path d="m112.07 202.33s4.552-8.404-6.128-5.777-12.605 16.632 2.451 6.653c0 0 2.276-3.326-1.05-1.926-3.326 1.401-8.404 10.154-5.077 11.38 3.501 0.875 6.478-2.801 6.478-2.801s7.003-7.528 2.626-6.653-11.73 12.78-3.852 12.43c2.976-1.576 6.478-4.727 6.478-8.579s-8.929 6.653-5.427 10.855c0 0 2.101 3.414 6.653-1.576s3.939-9.717 1.751-7.616-6.805 10.897-1.138 14.794c0 0 4.639 2.451 5.252-12.868-0.963-1.05-6.128 6.828-0.088 12.868 1.313 0.788 4.289 2.801 4.639-9.892 0 0-0.175-0.7-0.875-0.7s-3.852 9.104 2.013 12.605c0 0 5.165 2.101 3.326-10.329-1.138-0.613-3.414 7.703 3.414 10.067 4.99 1.663 4.99-5.165 2.889-10.855 0 0-0.613-2.539-1.926-2.276s-3.677 10.767 5.34 11.292c1.838-0.7 6.04-4.464 1.226-12.343-1.663-1.838-1.838 0-2.013 1.576s1.488 9.892 6.04 9.366c4.552-0.525 1.926-11.205-1.488-12.868s2.363 11.205 6.303 11.117c0 0 4.289 0.613 3.501-5.865-0.718-5.902-4.124-7.299-5.916-7.699-0.175-0.039-0.334-0.069-0.474-0.092-1.576-0.263 0.263 10.154 8.404 9.104 0 0 3.151-1.313 2.626-4.727 0 0-0.175-3.239-3.326-4.815l-3.151-1.576s-8.053-1.138-2.976 4.114 10.592-0.088 10.417-2.801c-0.175-2.714-3.326-7.703-11.292-3.501-1.313 1.663 7.528 5.077 11.73-1.05" fill="none" stroke="#000" stroke-miterlimit="10" stroke-width="2"/>
 <path d="m159.43 201.37c4.202-6.128-8.929-9.016-11.993-1.751-0.525 2.101 4.027 1.838 2.714-1.226s-2.188-4.114-2.188-4.114 3.326-7.703 5.952-12.08" fill="none" stroke="#000" stroke-miterlimit="10" stroke-width="2"/>
</svg>
