<?xml version='1.0' encoding='utf-8'?>
<svg xmlns="http://www.w3.org/2000/svg" viewBox="0,0,1462,1440" width="1462" height="1440" version="1.1"> <defs/> <g id="layer0"> <path d="M0,1440L91,1440L183,1440L274,1440L366,1440L457,1440L549,1440L640,1440L732,1440L823,1440L915,1440L1006,1440L1098,1440L1189,1440L1281,1440L1372,1440L1462,1440L1462,1381L1455,1381C1433.1,1380.4 1412,1378.5 1389,1378C1365.6,1379.3 1343,1376.5 1324,1377C1300,1378.5 1281.1,1374.4 1257,1375C1233.3,1376.8 1211.6,1373.9 1191,1374L1122,1374C1102,1371 1076.9,1373.1 1054,1372C1030.4,1371.4 1009.5,1373.5 987,1374C963.8,1373.6 942.6,1377.4 922,1374C901.6,1371.9 881.6,1368.9 864,1363C850.4,1354.1 837.3,1344.2 826,1332C818.8,1316.7 793.4,1319.1 790,1299C788.2,1279 784.5,1257.9 784,1237C782.3,1216.7 781.2,1194.8 780,1173C777.9,1152.8 779.4,1126.5 777,1108L777,1039C774.9,1018.9 778,996.9 784,982C789.7,964.7 799.8,951.8 814,943C830,936 837.7,920.7 849,909C864.6,924.2 885.2,905.8 895,898C913.2,880.5 929.7,904.7 936,913C945.2,890.3 922.9,875 904,888C887.3,910.5 864,872.1 894,871C902.7,857.2 909.7,841.2 924,832C936.6,852.6 945.3,814.8 952,808C967.6,800.9 992.4,797 1005,810C1017.7,825.9 1033.8,821.6 1054,820C1079.1,828.3 1081.1,802.2 1092,792C1100.1,779.5 1130.1,774.2 1138,789C1160.1,799.9 1187.5,780.7 1150,786C1125.5,779 1135.3,758 1153,754C1163.2,746.9 1187.2,729.9 1200,747C1206.4,762.9 1217.3,776.8 1230,784C1237.4,797.5 1288.4,792.4 1249,783C1237.9,771.6 1216.7,769.8 1212,751C1200.8,722.5 1239.9,735 1255,729C1278,729.2 1292.4,718.9 1314,720C1319.8,704.4 1329.2,675.9 1314,699C1304.6,717.6 1288.8,708 1269,717C1229.8,720 1253.1,701 1263,690C1277,682.9 1292,666.3 1300,669C1296.5,647.9 1300.5,623.5 1302,607C1304.5,604 1308.5,602 1314,601C1339.3,602.5 1321.7,592.6 1338,583C1350,572.5 1366.8,566.3 1377,553C1381.8,545.9 1374.3,552.3 1372,555C1360.4,572.2 1352.9,561.9 1360,553C1346.2,562.2 1339.2,578.2 1324,586C1313.7,607 1286.2,579.9 1293,613C1298.7,633.1 1282.7,672.4 1278,637C1270,622.7 1265.5,595.5 1284,591C1280.4,603.8 1240.5,581.8 1272,573C1282.2,575.2 1276.7,566.8 1273,565C1257.7,563.5 1261.2,541.3 1260,537C1256.9,538.2 1252.9,545.2 1257,549C1268.7,568.9 1253,570.9 1255,580C1258.7,599.7 1267,616.1 1266,637C1264.4,641.9 1251.4,634.9 1254,643C1279.9,644.4 1243.6,656.9 1266,664C1264,684.8 1244.6,690.2 1236,702C1220.7,709.2 1214.3,728.3 1188,720C1172.1,718.6 1151.3,748.1 1144,723C1125.6,694.2 1188.1,724.4 1165,690C1149.6,675.7 1158.2,654 1179,652C1199.8,626.9 1170.3,657.3 1153,654C1147.3,654.2 1146.8,648.7 1143,646C1150.1,616.6 1130.3,628.1 1137,645C1142,657.2 1155.6,684 1143,693C1105.2,687.8 1130,712.9 1128,730C1125.8,751.3 1107.6,756.1 1092,763C1081,774.8 1069.1,787.6 1054,793C1033.1,803.4 1016.7,788.3 1008,777C990.9,763 1006.5,740.2 1018,733C1031.9,728.8 1026.4,681.6 1012,709C1006.2,725.5 992.4,736.4 987,751C978.7,766.2 964.9,775.4 948,781C937.9,797.6 907.5,799.7 927,772C932.7,765 948,730.1 939,733C928.7,745.5 918.9,760.5 916,778C909.9,791.9 902,816.3 886,811C883.2,819.9 852.8,851.1 859,817C850.7,805.4 855.4,766.4 859,766C844.3,772.2 843,803.2 852,814C857.7,836.8 843.3,850.5 829,858C815.7,866.6 795.8,871.3 781,877C785.5,871.9 775.297,859.311 773.891,835.972C772.484,812.632 772.988,819.302 779.669,810.395C791.712,794.338 822.29,772.848 822.29,772.848C822.29,772.848 868.2,724.7 888,721C910.2,720.7 924.3,711.8 939,703C951.5,693.7 965.8,683.2 976,673C989.1,663.1 1008,659 1024,652C1060.5,639.5 1014.8,641.4 1002,646C986.6,654.1 968.6,659.1 954,667C938.9,674.8 915.7,676.2 898,679C879.6,683.6 860.9,687.9 846,696C826.3,682 859.1,670.7 862,658C871.7,644.7 881.6,631.6 894,621C898.4,603 906,585.9 928,588C948.4,591.1 966,596.5 982,603C998.2,612.2 1016.4,616.7 1032,606C1049.5,600.5 1064.3,592.3 1081,586C1094,576.6 1086.2,544.2 1099,537C1107.4,521.9 1117.3,508.8 1129,498C1141.6,486.5 1119,468.4 1120,450C1110,421.7 1134.2,419.3 1143,406C1156.8,397.9 1175.9,392.3 1186,382C1198.2,371.2 1205.3,355.3 1225,352C1239.7,323.6 1230.3,331.1 1213,346C1195.3,348.1 1182.1,366.4 1170,366C1165.2,364.8 1166.2,357.8 1164,354C1159.2,327.3 1153.6,343.4 1156,363C1157.4,386.9 1126.7,379.2 1123,399C1112.5,392.1 1113,363.7 1117,345C1114.1,324.9 1119.1,301.9 1120,282C1122.8,262 1138.8,253.3 1141,235C1146.4,217.4 1151.4,199.4 1158,183C1154.1,160.1 1138.7,200.8 1138,210C1138.2,220 1125.2,267.8 1120,234C1125.1,216.3 1122.2,188.6 1126,172C1128.4,155 1143.7,132.9 1126,121C1126.2,115.8 1121.2,114.8 1120,109C1105,97.4 1122.6,126.7 1125,132C1128.4,153.2 1118.6,170 1116,189C1115.7,207.9 1108.3,233.9 1111,246C1120.2,277.6 1082,254.2 1084,240C1079.5,221.3 1090.4,193 1080,180C1076.9,199.9 1079.4,225.4 1078,247C1079,267.6 1108.5,268 1104,286C1103.1,291.7 1101.6,299.1 1099,291C1091.8,275.6 1097.9,314.8 1098,322C1098.6,344.3 1087.2,360.9 1090,381C1095.4,399.1 1096.5,421 1099,441C1099,462.8 1102.6,491.2 1089,498C1079.8,511.8 1070.8,525.8 1065,543C1063,563.3 1044.9,569.9 1029,574C1004,576.5 989.9,567.6 976,558C961.6,554.4 948.9,527.7 964,517C963.6,493.6 978.5,485.5 1000,484C1018.7,479.7 1032.2,470.2 1038,453C1045.9,437.9 1056.7,425.7 1065,411C1047.7,399.6 1039,427.6 1033,438C1030.1,461.8 1002.3,455.8 1002,433C1001.7,410.2 1017.9,403.4 1023,385C1025.4,369.6 1006.5,405 997,408C981.5,422 991.8,443.6 1002,453C1023,474.4 979.3,469.7 970,478C950.6,493.7 934.1,484.5 943,454C942.2,432.8 937.1,414.9 933,396C925.7,380.9 924.8,348 943,348C951.5,334.4 980.9,337.3 982,321C967.6,327.2 952.7,324.1 972,303C974.2,286 981.8,270.2 996,261C1002.3,249.6 988.6,226 994,204C994.9,180.6 987.9,164.6 985,144C985.4,134.4 981.4,145.4 982,150C990.5,171.7 963.6,171 976,189C990.5,203.8 977.3,228.1 976,246C978,250.7 979.6,257.2 972,256C962.4,237.4 956.4,247.5 958,268C953.5,286.5 949.7,305.7 943,322C939.1,334.7 911.2,351.2 903,331C901.8,313.1 893.6,304.4 894,277C883.9,254 905.4,247 900,222C896,195 912.5,188.5 912,165C908.9,140.7 919.2,123 913,100C895.5,88.9 911.9,152.7 891,129C883.9,113.8 863.5,109.4 850,102C837.4,115.2 876.2,116.5 877,132C872.3,141.4 922.7,157.6 886,160C870.9,159.3 921.4,192.7 880,181C845.7,168.1 877,194.5 880,204C886.1,226.2 876.3,244.6 877,267C870.8,285.8 853,254.3 843,250C832.4,238.1 819.9,227.6 804,220C792.3,209.9 782,195.5 774,183C771.9,169.5 750.9,134.6 757,175C760.6,192 739,155.8 723,165C714.9,173.3 749.3,178.9 753,192C766.1,201.2 778.3,213.8 786,226C797.4,238.1 820.5,238 828,253C838,266.5 854,273.5 859,291C866.1,307.4 872.9,323.6 880,339C889.1,352.7 902.8,363.8 903,384C905,398.6 906.6,425.2 907,445C905.5,469.8 911.3,488.8 913,507C921.3,521.9 911.8,565.7 904,531C898.1,515 890.2,498.2 888,480C900.3,472.9 861.6,445.7 870,459C880.1,471.9 884.4,490.6 888,510C893.7,545.3 870.1,539 868,514C860.2,500.4 855.2,480.7 847,468C840.9,451.6 839,430.5 832,414C829.7,394.4 812.2,387.2 796,382C784.2,371.8 777.6,355.4 769,340C757.7,327.3 766.9,299.3 760,285C758.7,280.8 757.7,275.8 757,270C761.8,246.6 737.9,268.7 747,271C763.5,282.4 753.9,304.3 753,325C733.7,337.7 730,285.4 726,328C701.2,336.1 702.8,306.4 684,306C666.8,300.2 672.9,271.1 663,258C656,242.6 656.8,217.1 657,196C660.2,185.7 651.6,140.2 645,160C651.3,177 651.2,202.1 649,220C640.1,236 632.4,186.7 625,199C631.3,216.7 641.9,229.1 648,246C652.1,247.9 650.7,255.3 652,259C664.5,280.7 639.2,262.2 655,283C662.3,299.1 667.2,318.8 684,322C697.2,332.3 707.4,345.1 733,342C749.4,339.5 772.4,368.2 750,373C733.8,375.4 702.3,356.1 730,378C747.3,390.5 779.7,368.8 781,382C790,395.7 803.2,409 810,420C808.8,444.2 828.4,447.6 829,469C828.1,493.9 839,506 846,522C852.5,534 865.9,558.4 852,571C837.4,579.9 834.8,600.3 825,613C815.2,626 809.4,645 799,655C788.7,667.7 780.497,680.631 771.797,694.931C766.097,706.731 744.846,722.074 745,714C733.1,684.8 770.8,694.4 768,670C768.7,648.2 786.4,642.9 792,625C802.4,612.9 813.3,600.8 816,580C822.1,564.1 822.1,535.9 814,523C806.6,507.9 809.2,482 808,463C804.7,426 789.3,462.4 796,480C803.2,495.9 796,528.4 802,540C809.3,556.5 790.8,574.6 786,582C761.5,575.3 779.2,634.2 756,603C743.7,596.7 726.5,578.3 738,561C739.1,538.2 713.4,582.7 732,591C739.4,602.9 764.2,611.3 754,630C752.3,633.8 746.8,634.3 747,640C721.1,632.1 745.3,666.7 724,657C720.6,638.6 715.7,618.7 711,603C705.3,585.7 700.1,567.9 699,546C696,527 711.3,510 703,489C693.7,472.1 699.9,451.4 702,430C687.9,399.4 690.3,453.4 685,462C653.6,475.9 687,475.2 691,489C691.3,528.8 676,494.6 670,484C653.8,472.1 672,514.7 672,525C673,547 681.783,614.702 686.483,632.002C692.083,650.402 665.6,609.9 661,591C659.2,570.9 657.2,548.2 651,534C646.3,515.7 645.4,493.6 640,475C627.2,464.2 631.7,436.8 637,423C639.9,417 632.5,409.5 633,418C625.1,441 620.4,409.7 618,400C606.2,388.6 619.7,362.3 621,348C621.2,324.8 611.2,311.7 607,292C602.8,274.2 587.6,266.4 588,243C576.1,210.9 580.5,268.3 588,273C588.9,278.1 590.4,282.6 592,286C568.2,297.1 597,294.4 603,301C597.4,318.6 622.2,350.6 598,351C579.5,345.5 581.6,322.8 573,312C568.6,293.4 560.8,278.2 561,255C556,237.7 557.7,211.2 553,195C553,178.6 539.7,148.4 556,141C570.3,131.8 585.6,124.1 595,111C581.7,94.6 570.1,144.1 561,118C557.2,85.1 557.1,159.3 540,132C545.8,105.6 539.5,82.4 523,109C502.6,98.6 525.4,76.2 531,67C538.8,60.4 550.1,26.6 543,25C536.7,52.4 519.1,10 525,0L520,0C508.5,18.6 540.5,31.7 525,49C522.2,69.7 517.3,87.8 501,94C503.2,110 531.6,119.8 522,133C547.1,157.5 510.1,141.1 511,124C473.4,115.7 489.7,137.9 507,144C513.7,159.6 537.3,160.8 540,178C540.5,212.9 518.8,182.3 510,175C505.7,179.4 512.3,183.9 511,189C522.1,204.3 473.2,196.6 504,204C528.9,202.1 542.4,211.6 540,237C537.3,257.7 547.6,283.9 544,292C528.5,285.5 519.4,271.6 504,264C489,256.7 473.1,247.9 457,243C435,242.5 436.9,217.6 433,198C434.5,190.8 426.1,190.4 426,196C433,228.5 416.9,197.7 408,207C419.1,216.9 441.7,238.3 405,228C387.7,223 370.2,215.8 370,195C371.2,180.8 348.6,143.4 360,178C355.6,198.4 322.4,188.8 312,181C305.6,178.3 304.2,181.7 298,183C269.8,190.9 302.2,187.2 313,192C333.7,194.2 358.5,194.1 364,208C366.9,214 365.9,218 361,220C340,229.6 350.2,231.5 372,228C385.9,228.5 424.8,237.1 409,243C394.3,244.6 363.4,254.5 379,270C375.1,302.5 392.9,271.2 396,258C410.8,251.5 435.5,248.1 456,252C474,256.4 479.1,275.9 492,283C501.9,296.6 518.9,302.6 534,310C551.1,315.8 575.7,328.4 543,333C524.3,342.6 583.7,336.7 561,363C558.1,366.2 548.1,365.2 549,360C546.3,355.8 534.4,376.2 519,370C520.8,389.4 496.3,392 487,405C475.7,413.3 456.9,429.7 444,414C470.7,448.4 421.2,422.4 418,427C447.3,441 390.2,445.8 381,435C360.7,429.3 338.8,425.2 316,421C274.6,417.8 341.3,424.8 342,433C367.2,431.2 396.8,436.1 388,459C372.3,468.8 363.6,486.1 337,486C332,485.3 327.2,480.7 324,480C319.7,494.6 356.6,486.4 348,496C364.4,487.5 375.7,471.2 391,463C407.8,464 419.7,444.6 445,445C446.3,463.8 469.7,425.2 483,429C486.9,431.2 488,439.7 487,444C501.1,459.4 485.6,410.9 496,409C518.9,406.5 527.3,387.3 546,382C577.3,373.9 591,395.8 580,420C573.2,445 541.4,421.5 520,426C491.4,428.3 546.3,438.9 559,438C585.2,432.8 604.5,454.4 592,472C575.2,481.2 554.4,486.4 531,489C507.8,491.8 485.4,495.4 465,501C433.4,524.3 478.8,516.1 493,508C511.4,507.3 543.8,507.3 564,505C578.3,504.6 621.2,487.2 621,514C610.6,530.1 573.2,518.7 565,537C580.2,552.4 600.4,518.5 621,535C607.7,536.7 582.3,579.6 609,558C630.6,530.4 627.6,580.5 627,597C642.7,605.9 631.328,624.991 637.502,643.134C643.676,661.277 649.395,668.572 651.695,669.572C662.195,705.572 660.485,700.497 664.485,719.497C664.485,733.144 616.4,715.4 619,699C620.8,691.6 615.8,687 615,684C597.3,657.8 618.7,699.5 610,705C591.3,709.3 580.2,686.3 562,681C552.2,669.3 543.2,638.9 555,624C562,611.4 572,561.9 556,601C555.8,606.9 549.5,610.1 549,613C531.9,633.7 541.4,597 525,600C521.5,596.7 525.4,586 526,585C539.9,562.1 525.9,558.3 520,580C508.5,596.3 487.7,568.1 472,567C454.5,559 420.1,567.4 418,543C404.2,548.3 366.2,513.3 390,541C415.6,550.1 422.5,568.5 381,559C355.4,567.4 337.6,546.1 316,556C319,564 353.2,567.1 373,568C401.4,562 415.2,575.9 444,573C471.6,571.4 485,584 501,594C520.7,599.7 523.8,624.2 531,640C548.7,675.3 504.3,645.1 489,652C462.6,654.9 438.9,645.6 417,652C377.1,666.6 398.4,624.3 387,616C360.7,615.5 336.3,618.8 327,633C306,633 292.4,617.3 276,609C260.6,600.2 238.5,591.5 246,564C248.1,559.7 248.1,549.5 246,547C245.9,563 232.1,582.7 243,594C255.3,619.3 219.7,582.6 220,573C211.8,555.7 200.7,540.8 184,531C191.6,542.8 224.3,568.3 180,565C161.3,556.1 131.5,573.8 123,550C103.6,561.3 145.4,571.9 163,568C183.9,574.1 213.4,570.6 222,588C227.8,608.2 250,612 268,619C289.6,624.4 298.5,641.5 319,646C340.7,649.8 345.8,617.5 372,631C388.4,650.9 365.2,670.5 354,679C343.7,688.1 325.3,717.1 310,697C296,686 281.8,674.2 265,664C261.1,662.8 253.9,660.4 252,658C247.7,657.8 244.4,656.1 238,657C207,653.9 256.5,665.6 234,661C211.1,656.7 185.9,661.3 163,660C174.9,676 221.7,652.6 219,676C226,676.5 261.1,660.4 270,682C277.4,695.6 319.9,694 304,715C279.4,710.9 262.3,723.2 241,727C217,726 197.6,719.4 174,717C157.5,717.9 121,695 124,712C114.8,715.7 52.6,719 85,723C110.3,723 130.2,713.7 154,717C179.1,718.4 196.7,726.8 219,730C250.7,725.7 246.9,764.2 220,759C208.6,756.5 220.7,765.4 222,765C241.6,771 238.6,745.2 252,741C260.4,725.5 287.3,719.8 310,727C335.7,726.7 343.4,708.4 361,700C372.4,669 392.9,696.4 378,717C368.3,734.7 403.9,740 406,756C413.8,754.8 420.7,757.5 424,757C459,763.7 419.9,748.5 412,747C388.5,744.2 385.3,713.4 409,708C415.9,705.7 410.7,695.6 409,694C405.2,682.5 445.1,691.7 456,688C480,687.7 508.6,684.5 526,691C538.9,705.1 548.8,721.2 559,736C564.2,737.9 563.8,747.9 568,747C596.6,742 589.5,773.4 568,760C547.8,758.3 533.6,738.1 514,742C507.4,751.1 545.4,759.3 550,771C562.7,778.5 578.781,806.773 616.63,791.188C639.684,781.695 662.199,819.266 665.099,832.866C666.49,858.748 668.267,845.482 659.99,893.59C654.052,928.105 646.6,913.9 645,939C655.8,978.9 621.9,943 607,943C590.2,935.4 569.9,928.1 556,918C542.2,906.3 525.5,897 516,880C504.1,866.5 474.2,866 457,874C438.5,878.4 430.4,904.8 409,898C384.8,897.2 380.2,875.8 370,859C359.9,844.9 359.6,829.2 352,805C363.3,825.9 342.1,846 352,858C364.6,870.9 383,900.2 352,876C326.8,864.7 367.6,894.6 372,901C375.5,904.1 379,910.2 382,910C403.6,927.2 365.3,925.8 361,915C342,919.9 312.6,881.1 331,910C304.4,917.6 309.2,882 288,879C273.7,888.8 322.3,907.5 298,916C263.4,929.7 307,921 316,913C321,915.1 330.7,914.9 331,918C354.1,916.6 303.4,933.9 343,924C359.9,924.9 384.1,943.5 400,924C419.1,916.6 436,907.5 456,901C481.8,890.1 496.8,909.4 510,919C540.4,925.3 507.5,960.1 531,963C554.4,965.6 576,970 585,987C596,1002 608.2,1015.8 619,1030C626.9,1049.1 647.7,1054.3 649,1078C648.2,1105.2 652.5,1128.5 651,1153C652.2,1178.3 654.9,1201.6 654,1228C658.9,1254.8 651.3,1274.9 649,1299C652.6,1321.7 636,1336.4 619,1344C600.8,1350.7 578.4,1355.9 559,1360C538.4,1365.4 515.3,1368.3 493,1372C470.4,1375.4 453.1,1384.1 429,1386C405.3,1388.3 378.4,1387.4 352,1387C325.8,1386.2 302.5,1390.5 277,1389C252.6,1390.1 232.4,1395.9 207,1396C183.2,1398 159.3,1401.8 136,1402C113.7,1405.7 90.5,1408.5 67,1411C46,1415.4 20.5,1417.5 0,1420L0,1440Z" stroke="#503500" stroke-width="0.75" stroke-linecap="round" fill="#503500" stroke-linejoin="round"/> <path d="M441,414L444,414C438.3,405.5 427.7,397 420,388C419.4,402.3 435.1,404.6 441,414Z" stroke="#503500" stroke-width="0.75" stroke-linecap="round" fill="#503500" stroke-linejoin="round"/> <path d="M415,388L420,388C421.5,382.5 404.2,382.5 415,388Z" stroke="#503500" stroke-width="0.75" stroke-linecap="round" fill="#503500" stroke-linejoin="round"/> </g> </svg>